<?xml version="1.0" encoding="UTF-8"?>
<svg id="Layer_1" xmlns="http://www.w3.org/2000/svg" version="1.1" viewBox="0 0 150 150">
  <!-- Generator: Adobe Illustrator 29.1.0, SVG Export Plug-In . SVG Version: 2.1.0 Build 142)  -->
  <path d="M121.8,116.91c.14.61.74.69,1.14,1.01.36.3.72.59,1.08.88.07.06.15.14.24.16.5.09.76.44.94.87-.23.1-.4.07-.59-.15-.17-.2-.46-.3-.69-.44-.29.25-.36-.13-.57-.21-.11.06-.3.11-.35.21-.21.47-.62.39-.96.33-1.09-.19-2.16-.44-3.24-.65-.22-.04-.45,0-.68-.03-.16-.02-.32-.08-.48-.13-.41-.15-.78-.47-1.27-.22-.08.04-.25-.02-.36-.08-.52-.28-1.05-.44-1.68-.18.05.17.11.33.18.55.08-.12.12-.18.18-.28.29.16.59.32.88.49.54.31,1.09.63,1.62.96.1.06.16.2.22.31.09.15.17.31.27.48.15-.1.23-.16.36-.24.14.48.6.23.89.42.28.19.6.33.9.49.65.36,1.3.73,1.93,1.09v.42c.14-.08.25-.14.39-.21.05.13.09.25.13.36-.11,0-.23,0-.34,0-.03.05-.06.1-.09.15.08.08.15.16.27.29.08-.25.11-.35.14-.45.1.11.21.22.33.35.08-.05.17-.11.26-.17.03.02.08.04.08.06.05.36.37.35.61.43.24.08.47.13.56.41.1.34.45.35.7.4.33.06.55.22.75.47.12.15.27.27.41.39.18.16.3.35.16.68-.4-.2-.79-.39-1.09-.54-.33.23-.59.41-.84.59.49.39.94.84,1.48,1.14.43.25.74.69,1.31.75.33.04.64.27.95.43.1.05.16.17.26.21.33.12-.24.46.17.59.15.05.22.36.33.56-.35.22-.37-.14-.55-.21-.11.04-.23.08-.33.12-.05.27-.16.52-.14.76.06.51-.14.73-.65.69-1.34-.12-2.56-.64-3.79-1.14-.41-.17-.88-.26-1.11-.72-.02-.05-.08-.09-.13-.11-.38-.1-.76-.19-1.14-.29-.36-.09-.72-.17-.84-.63-.42.16-.73.06-.96-.32-.07-.11-.17-.23-.28-.28-.22-.09-.47-.12-.7-.21-.23-.09-.43-.23-.77-.42.31.31.52.51.74.72.06.05.12.14.18.14.51,0,.66.41.94.71.3.31.75.49,1.13.73.19.12.39.23.57.36.44.34.87.68,1.3,1.03.41.33.83.64,1.21.99.09.08.07.28.12.54-.34-.11-.57-.19-.81-.25-.42-.11-.85-.21-1.28-.32-.07-.02-.19,0-.22-.03-.28-.35-.64-.21-.99-.2-.29,0-.59-.11-.9-.17-.02.05-.05.14-.1.25-.12-.07-.3-.11-.32-.2-.11-.37-.39-.28-.62-.25-.18.03-.34.1-.37-.18,0-.04-.11-.09-.17-.09-.39.02-.68-.34-1.11-.26-.1.02-.25-.24-.4-.4-.09.02-.2.04-.31.06-.18.04-.35.03-.44-.17-.13-.28-.39-.27-.63-.29-.5-.06-.95-.21-1.33-.59-.07.07-.16.15-.26.25.61.3,1.18.59,1.76.88-.12.24-.25.31-.47.21-.49-.21-1-.36-1.47-.62-.62-.34-1.32-.46-1.94-.79-.52-.27-1.08-.44-1.56-.79-.28-.2-.65-.27-.98-.4-.57-.24-1.13-.48-1.69-.72-.88-.37-1.76-.77-2.66-1.1-.56-.2-1.11-.47-1.72-.55-.05,0-.11-.04-.16-.07-1.17-.75-2.57-.99-3.77-1.67-.14-.08-.34-.06-.5-.12-.85-.31-1.69-.64-2.53-.96-.02,0-.04,0-.05-.02-.44-.49-1.1-.42-1.64-.66-.24-.11-.49-.19-.72-.32-.08-.04-.1-.19-.16-.28-.05-.09-.11-.18-.16-.28-.53.43-1.1.03-1.4-.55-.17.38-.15.33-.46.21-.46-.19-.8-.62-1.33-.65-.03,0-.06-.04-.09-.07-.36-.39-.43-.44-.79-.54-.01.09-.03.17-.05.31-.33-.1-.67-.16-.97-.31-.5-.26-1.05-.17-1.56-.31-.24-.06-.48-.12-.72-.19-.14-.04-.28-.1-.43-.12-.19-.03-.37,0-.48-.24-.05-.1-.25-.14-.38-.17-1.31-.34-2.56-.86-3.8-1.4-.32-.14-.64-.25-.97-.37-.05-.02-.11-.02-.17-.02-.34.03-.69.06-1.03.1-.1.01-.2.08-.3.12.05.11.09.22.16.33.03.04.1.05.13.12-.63.22-1.26.09-1.88.15-.61.05-1.22.07-1.83.12-.62.05-1.24.13-1.91.21.06.21.09.33.12.45.12.51.23,1-.14,1.47-.18.23-.34.51-.22.78-.38.32-.69.63-.86,1.06-.02.05.03.16.01.16-.54.19-.46.81-.8,1.13-.4.38-.81.75-1.21,1.13-.07.06-.15.13-.18.21-.16.45-.54.69-.89.95-.21.15-.37.29-.46.55-.17.53-.45,1-.95,1.31-.14.09-.23.25-.38.41-.11-.04-.24-.08-.48-.16.13.27.21.44.31.65-.17.01-.29.02-.37.03-.27.38-.53.73-.82,1.14.09.03.24.08.43.14-.13.19-.25.38-.38.56-.03,0-.06-.02-.09-.03.01-.13.02-.26.03-.39-.4.07-.58.21-.57.44.02.3.26.2.59.25-.25.12-.39.18-.53.24-.1-.08-.2-.17-.3-.26q.03.26.31.24c.1.27,0,.42-.27.48-.14.03-.28.05-.5.09.22.27.59.45.22.81-.1-.16-.2-.31-.32-.48-.72.81-.79.95-.88,1.7-.29-.12-.47,0-.57.29-.12.35.25.37.39.59-.06.12-.12.26-.19.41-.15-.13-.27-.23-.41-.36-.26.39-.35.81-.41,1.27,0,0,.08.06.15.11-.12.79-.76,1.28-1.1,1.97-.14-.04-.26-.08-.42-.13.04.09.06.16.09.18.09.06.19.15.29.16.39.03.79.02,1.19.05.16.01.35.06.48.16.26.2.5.24.8.11.43-.19.83,0,1.22.15.1.04.21.13.31.12.9-.14,1.78.17,2.68.11.49-.04.99,0,1.48.03.14,0,.34.09.39.2.29.64.86.52,1.38.54.23.01.46,0,.69.04.35.05.49.41.2.6-.45.3-.75.73-1.13,1.08-.22.2-.52.34-.77.53-.26.2-.71.16-1.08.18-.26.01-.53-.08-.79-.08-2.93,0-5.86,0-8.8,0-.63,0-1.27,0-1.9,0-6.77,0-13.54,0-20.31-.01-.46,0-.92-.08-1.48-.13.2-.13.33-.21.45-.29-.03-.07-.04-.12-.06-.13-.24-.1-.49-.2-.45-.51.04-.28.31-.31.53-.38.15-.04.3-.07.45-.09.23-.04.37-.14.45-.38.17-.55.65-.75,1.14-.79,1.23-.09,2.47-.09,3.71-.17.66-.04,1.32-.19,1.99-.26.79-.09,1.59-.14,2.38-.21.33-.03.67-.05.99-.14.61-.18,1.27-.11,1.85-.4.03-.02.1-.02.1-.05.15-.58.79-.64,1.11-1.05.35-.44.74-.83,1.13-1.23.5-.5,1.03-.98,1.52-1.48.4-.41.78-.85,1.16-1.28.24-.27.5-.53.7-.83.2-.28.32-.62.51-.91.24-.36.61-.67.75-1.06.22-.64.98-.88,1.08-1.58,0-.04.1-.11.15-.11.21.01.25-.11.3-.27.03-.1.12-.18.2-.25.36-.3.37-.36.16-.81.11-.11.24-.2.32-.33.39-.68.77-1.37,1.2-2.13-.03-.07-.09-.23-.16-.41.1-.15.21-.3.3-.44-.07-.23-.14-.44-.22-.65-.04-.1-.1-.22-.19-.27-.41-.22-.56-.61-.7-1.01-.06-.18-.15-.35-.25-.51-.36-.6-.38-.69-.41-1.51,0-.08-.16-.16-.25-.24-.09-.08-.22-.14-.26-.24-.12-.32-.17-.66-.31-.96-.08-.16-.28-.32-.46-.37-.65-.2-1.32-.36-1.98-.53-.24-.06-.48-.11-.7-.21-.18-.08-.34-.23-.55-.38-.04.04-.14.12-.23.21-.53-.2-1.05-.39-1.55-.61-.22-.1-.41-.29-.64-.37-.24-.09-.53-.07-.76-.18-.37-.18-.83-.22-1.09-.61-.04-.07-.18-.13-.24-.11-.29.08-.38-.05-.4-.31-.02-.24-.2-.31-.34-.14-.13.16-.25.09-.35.04-.76-.37-1.57-.69-2.26-1.18-.4-.28-.81-.51-1.23-.73-.15-.08-.21-.19-.2-.37,0-.24-.18-.34-.5-.46.16.2.24.3.32.41-.56-.18-.84-.61-.98-1.19-.2.14-.33.23-.49.34-.12-.08-.24-.16-.44-.3.12-.08.19-.13.25-.17-.11-.1-.23-.22-.36-.35-.07.03-.18.06-.33.12.04-.15.06-.25.1-.39-.16-.07-.33-.14-.51-.22-.07-.18-.14-.37-.25-.64-.09.18-.12.29-.2.36-.06.06-.24.09-.25.08-.14-.31-.52-.19-.72-.42-.19-.21-.47-.34-.68-.53-.11-.11-.25-.26-.07-.45.03-.03-.07-.17-.15-.32-.11.17-.17.26-.25.38-.15-.27-.28-.52-.42-.77-.17.02-.36.11-.47.05-.23-.13-.43-.32-.62-.51-.13-.13-.23-.29-.34-.43.1.01.21.03.33.04-.03-.17-.05-.29-.08-.47-.1.19-.17.31-.24.44-.2-.09-.44-.14-.58-.28-.46-.45-.88-.93-1.32-1.41-.28-.31-.56-.63-.84-.94.15,0,.31,0,.47,0-.02-.27-.16-.36-.34-.31-.06.02-.08.21-.12.32-.13-.16-.26-.32-.39-.47-.09-.11-.18-.25-.3-.3-.25-.1-.28-.28-.23-.49-.49-.21-.69-.56-.57-.98-.13-.02-.26-.05-.39-.07.04-.15.08-.3.14-.55-.42-.46-.94-.97-1.39-1.54-.25-.31-.76-.5-.6-1.06-.41.15-.42-.28-.68-.36.07-.14.13-.24.17-.32-.18-.12-.42-.2-.5-.36-.08-.14.02-.38.04-.6-.41.04-.66-.17-.75-.58-.1-.46-.41-.75-.8-.98.07-.21.13-.4.21-.65-.35.03-.52-.16-.65-.46-.22-.51-.48-1.01-.73-1.51-.1-.21-.22-.4-.33-.61-.05-.08-.07-.21-.14-.25-.45-.23-.43-.74-.68-1.08-.27-.38-.37-.77-.37-1.23,0-.14-.1-.29-.18-.41-.27-.44-.48-.89-.56-1.41-.06-.37-.25-.71-.38-1.07-.11-.3-.22-.6-.33-.91.18-.07.31-.12.49-.19-.09-.08-.12-.14-.16-.15-.31-.06-.6-.13-.59-.56,0-.11-.16-.22-.2-.34-.05-.2-.14-.45-.06-.59.12-.21.07-.29-.08-.41-.08-.06-.18-.14-.21-.23-.13-.4-.26-.8-.33-1.21-.13-.69-.15-1.41-.35-2.08-.2-.68-.08-1.36-.15-2.04-.03-.3-.05-.61-.09-.91-.17-1.1-.34-2.19-.12-3.3.03-.13.02-.27,0-.4-.04-.31,0-.58.1-.89.12-.35.1-.74.12-1.12.06-.83,0-1.68.28-2.49.11-.34.31-.66.1-1.04-.04-.07.06-.21.09-.32.29-1.03.43-2.09.55-3.16.12-1.1.28-2.21.54-3.29.28-1.16.4-2.34.64-3.5.2-.97.4-1.94.63-2.9.27-1.09.56-2.17.88-3.25.17-.55.43-1.06.65-1.59.12-.28.22-.56.35-.84.21-.47.38-.96.58-1.43.26-.61.62-1.17.79-1.83.03-.12.13-.23.21-.34.14-.22.29-.45.44-.67.16-.24.16-.58.44-.75-.09-.22.4-.37.07-.63-.04-.03.03-.25.1-.35.32-.42.65-.84.99-1.25.22-.26.48-.48.69-.75.73-.93,1.67-1.6,2.6-2.31.99-.74,2.05-1.07,3.25-1.09,1.37-.03,2.73-.1,4.1-.08,1.02.01,2.04.08,3.04.22.98.13,1.97.2,2.95.34.22.03.42.07.5.36-.09.06-.19.13-.37.26.25.02.41.04.58.05-.03-.17-.06-.32-.1-.52.19-.02.34-.06.49-.04.89.15,1.79.23,2.64.49.5.15,1.03.12,1.52.35.48.22,1.03.27,1.55.41,1.13.31,2.25.63,3.37.94.09.02.17.09.31.16-.1.06-.16.1-.29.18.19.04.39.11.41.08.22-.35.47-.07.71-.05.04.12.08.24.12.39.2-.03.38-.06.56-.07.09,0,.2-.02.28.01.86.31,1.73.57,2.59.89,1.55.58,3.09,1.17,4.63,1.75.24.09.41.23.32.55.12-.1.23-.23.28-.21.33.15.72.16.99.44.07.07.18.17.26.16.72-.09,1.25.41,1.88.62.04.01.06.13.09.21-.95.57-1.97.9-3.02,1.13-.11.02-.23.02-.35,0-.51-.06-.99.09-1.46.25-1.87.62-3.75,1.24-5.63,1.85-.6.2-1.2.4-1.81.58-.18.05-.37.02-.6.03-.05.05-.14.19-.27.25-.15.08-.33.11-.5.12-.76.05-1.42.32-2.07.72-.58.36-1.15.72-1.73,1.07-.06.03-.14.02-.22.02-.44-.29-.44-.3-.9.06-.06.04-.07.14-.11.21.09,0,.22.03.27-.02.22-.18.45-.33.75-.26-.54.46-1.12.84-1.84.96-.15.02-.31.07-.42.16-.43.32-.86.64-1.25,1.01-.26.25-.45.57-.67.86-.04.05-.05.15-.04.22.12.5.26.99.37,1.49.11.47.59.93-.15,1.49.59-.04.79.17.91.51.04.12.12.25.22.34.15.14.33.24.61.43,0,.02.05.17.01.31-.07.29.04.46.31.51.52.11.8.45,1.01.92.3.66.79,1.17,1.51,1.43.33.12.61.35,1.05.61.3-.02.7.13,1.07.46.43.38.92.69,1.38,1.05.25.2.5.42.72.66.22.24.49.46.79.43.53-.05.73.31.99.63.13.16.26.34.36.52.1.19.23.28.45.29.29.01.46.38.8.3.28.33.66.45,1.04.6.22.09.39.22.47.47.05.15.19.28.3.41.28.31.57.62.86.92.04.04.06.11.11.13.39.19.76.43,1.17.53.36.1.53.27.54.65.36-.01.67.04.67.5,0,.09.11.24.19.26.59.08.94.64,1.51.77.07.02.15.14.16.22.03.36.3.52.52.72.3.27.58.56.86.84.05.05.09.13.15.16.69.32,1.13.94,1.68,1.42.14.12.31.21.45.34.76.64,1.49,1.31,2.1,2.11.27.35.66.63,1.02.9.11.08.32.01.49.01.1.12.21.25.33.39-.07.24-.13.48-.18.65.24.1.48.19.71.28.03.01.06.05.1.06.21.06.51,0,.59.27.08.27.09.56.14.91.22.17.45.55.96.28.03.23.09.39.08.55-.03.31.09.51.36.65,1.21.66,2.17,1.68,3.34,2.41.25.15.4.43.72.51.1.03.15.25.21.37-.14.18-.25.33-.39.5.47.25.9.48,1.35.72-.03.1-.07.2-.11.33.23.1.37.39.7.29.12.38.28.47.66.37-.13-.31-.37-.39-.67-.35-.08-.2-.16-.4-.25-.62.31-.11.49.07.64.22.37.38.84.63,1.27.92.3.2.63.36.81.71.06.12.23.19.34.28-.31.56-.28.63.4.82-.04-.18-.09-.33-.1-.48,0-.05.07-.14.12-.16.05-.02.16,0,.2.04.56.59,1.05.94,1.63,1.16.34.13.46.35.44.75,0,.11.03.22.04.33.02.18.02.36.07.53.03.1.13.18.21.28,0-.15.02-.24.02-.37.76.31,1.33.97,2.2.84h-.02c-.14.31.11.5.25.72.13.2.26.39.38.56.1.03.25.03.35.1.45.31.5.3.71-.28.13.12.24.23.35.34-.05.04-.08.08-.1.08-.2-.01-.3.13-.28.28.02.12.15.31.25.32.49.07.69.38.77.82-.11-.08-.23-.17-.34-.25-.03.03-.06.05-.09.08.08.12.16.24.26.38.08-.11.12-.17.17-.22.13-.06.29-.21.37-.17.22.09.51.23.58.42.12.31.31.38.59.45.22.05.43.17.62.29.86.55,1.71,1.1,2.57,1.65.08.05.19.04.28.08.33.16.66.34.75.79.13-.03.25-.06.39-.09.06.06.12.14.18.21.19.23.4.42.72.46.38.04.62.28.74.68.12-.04.22-.08.28-.1,1.17.77,2.31,1.52,3.48,2.29-.03.08-.06.19-.11.34.14-.03.26-.06.39-.09.16.13.32.26.51.41-.06.12-.11.23-.23.47.26-.12.39-.18.58-.27v.49s.06.04.09.05c.06-.09.13-.18.2-.29.22.08.2.45.53.41.05,0,.13.26.22.44.11.02.3.05.53.09-.07.09-.11.14-.17.23.16.13.31.3.5.41,1.12.66,2.12,1.52,3.25,2.16.35.2.66.5.99.74.09.07.2.11.3.17.29.18.58.36.86.55.21.13.4.31.63.39.28.1.52.23.7.47.01.02.02.03.04.04.74.26,1.05,1.04,1.68,1.42.7.43,1.28,1.01,1.97,1.45,1.3.83,2.47,1.81,3.51,2.93.32.35.57.75,1.09.9.34.1.18.46.28.78-.44-.19-.85-.15-1.22-.49-.33-.31-.84-.43-1.27-.63-.49-.29-.97-.6-1.47-.88-.25-.14-.52-.25-.79-.37.02.15.07.25.15.3.4.23.8.47,1.21.66.28.13.6.18.9.27ZM85.11,89.12q0,.29.28.33c-.12-.13-.21-.23-.29-.32-.13-.11-.2-.34-.44-.28q.08.25.45.26ZM61.73,131.81c.21-.25.42-.51.43-.95-.28.33-.62.53-.42.97-.07-.01-.16-.06-.21-.03-.07.03-.11.12-.15.19,0,.01.09.11.1.1.07-.05.14-.11.2-.17.02-.02.03-.06.05-.1ZM63,118.49c.13.76.22,1.47.38,2.15.08.34.18.63.04,1-.12.32-.09.69-.13,1.04,0,.05-.03.14-.07.15-.3.07-.25.36-.36.54-.11.19-.2.4-.32.59-.51.85-1.02,1.7-1.53,2.54-.19.31-.37.63-.6.9-.28.35-.61.66-.92.99-.29.31-.59.63-.87.95-.24.27-.57.52-.67.85-.11.36-.31.54-.55.79-.64.65-1.18,1.4-1.74,2.12-.12.16-.32.36-.29.51.06.4-.19.47-.52.53.21.26.12.43-.06.59-.12.1-.29.16-.35.29-.28.59-.65,1.1-1.1,1.57-.11.11-.16.28-.25.45.11.03.16.05.22.05.49.06.99.08,1.4.42.06.05.18.06.27.06.52,0,1.03,0,1.46,0,.69-.98,1.33-1.89,1.99-2.82.18.25.38.27.62.09-.43-.42-.54-.67-.28-.95.45-.47.67-1.15,1.39-1.44-.35-.34-.12-.61.07-.85.21-.27.44-.52.69-.75.22-.21.41-.44.53-.72.14-.34.42-.59.51-.96.03-.11.18-.18.27-.28.2-.21.58-.27.54-.69,0-.07.15-.15.24-.22.18-.13.39-.23.53-.39.09-.1.05-.32.14-.44.43-.55.9-1.08,1.34-1.64.12-.15.28-.43.22-.54-.16-.31,0-.51.11-.75.12-.24.26-.49.3-.74.03-.2.09-.34.19-.51.37-.59.67-1.21.65-1.94,0-.12-.02-.24.02-.34.26-.61.17-1.24.09-1.92-.16-.06-.34-.18-.51-.18-.99.01-1.98-.26-3.08-.09ZM120.44,117.47c-.41-.34-.85-.62-1.47-.63.29.74,1.01.38,1.47.63ZM88.55,91.51c-.2-.33-.38-.49-.64-.58-.19.13-.31.3-.22.52.1.25.31.12.49.09.09-.02.17-.02.37-.03ZM111.81,128.9c-.07-.16-.14-.31-.17-.39-.32-.07-.57-.13-.86-.2.14.53.71.33,1.03.59ZM46.02,38.64s.02-.09.03-.13c-.3-.18-.87-.24-1.09-.09.37.08.72.15,1.07.23ZM112,129.03q.59.27.87.16c-.19-.16-.39-.33-.61-.52-.07.09-.15.2-.26.35ZM119.63,122.13c.18-.05.35-.11.55-.17q-.27-.25-.59-.18c.01.12.03.23.04.35ZM59.58,133.33c-.05.31-.09.53-.13.81.46-.29.46-.31.13-.81ZM80.51,85.73q.12.36.48.31-.19-.3-.48-.31ZM118.51,130.71s-.04.1-.06.15c.26.1.51.19.77.29.02-.05.04-.11.06-.16-.26-.09-.51-.19-.77-.28ZM60.86,133.09c-.59.5-.6.51-.3.77.1-.27.2-.52.3-.77ZM119.84,127.87c-.01.06-.02.12-.04.18.21.05.43.1.73.17-.22-.38-.42-.5-.7-.34ZM85.62,89.48q.06.48.39.3c-.14-.11-.26-.2-.39-.3ZM117.56,120.99s-.03.09-.05.14c.17.1.32.23.52.22.02-.04.03-.08.04-.12-.17-.08-.34-.16-.52-.24ZM90.99,94.14c-.04-.44-.29-.4-.49-.43.14.12.27.24.49.43ZM62.44,129.27s.08.06.12.09c.08-.1.16-.2.25-.3l-.09-.08c-.09.1-.18.19-.27.29ZM120.7,122.75s.07-.07.1-.11c-.08-.08-.16-.15-.23-.23-.03.05-.09.12-.08.13.06.08.14.14.21.2ZM120.41,125.43l-.06.09c.17.1.33.21.5.31.02-.03.04-.06.05-.09-.17-.11-.33-.21-.5-.32ZM91.59,94.48s-.06.03-.07.04c0,.01,0,.04,0,.05.07.08.15.16.23.22.02.02.09-.02.2-.06-.16-.11-.27-.19-.37-.26ZM88.73,91.57c-.07.1-.17.17-.16.24,0,.07.1.13.16.2.05-.06.15-.13.15-.19,0-.07-.08-.14-.15-.25ZM50.95,39.36q-.24-.29-.51-.1c.18.04.31.06.51.1ZM64.47,127.83s-.09-.05-.14-.08c-.07.12-.15.23-.22.35.04.03.09.05.13.08.08-.12.16-.23.23-.35ZM84.06,117.79c-.07-.04-.12-.08-.17-.09-.02,0-.08.09-.07.12.03.05.09.09.14.13.03-.04.06-.08.11-.16ZM122.14,129.01l.12-.17c-.14-.07-.28-.14-.42-.2-.02.04-.05.08-.07.12.12.08.25.17.37.25ZM27.85,90.21q0,.4.33.49c-.11-.16-.19-.29-.33-.49ZM60.24,48.21s-.04-.08-.06-.13c-.11.05-.21.1-.32.15,0,.02.02.05.03.07.11-.03.23-.06.34-.09ZM35.89,38.2s-.02-.06-.03-.1c-.11.04-.22.07-.34.11.01.03.02.06.03.09.11-.03.22-.07.34-.1ZM41.9,38.01s.01.09.02.13c.1-.02.2-.05.29-.07,0-.02,0-.04-.01-.06h-.3ZM85.51,118.21l-.06.12c.1.03.2.07.29.1l.04-.09c-.09-.04-.18-.09-.27-.13ZM83.54,117.73c-.2-.16-.32-.28-.38,0h.38ZM81.22,116.92s-.03.06-.04.09c.09.04.18.09.27.13.02-.03.03-.07.05-.1-.09-.04-.18-.08-.27-.12ZM87.28,90.79c-.03.06-.09.12-.07.14.04.06.1.09.15.14.04-.05.08-.1.13-.15-.06-.04-.12-.08-.2-.13ZM60.84,48.03s-.02-.09-.03-.13c-.11.03-.22.07-.33.1,0,.03.01.06.02.08l.34-.05ZM48.02,39.35s0,.09,0,.14c.11-.01.22-.02.33-.03,0-.02,0-.05,0-.07-.11-.01-.22-.02-.33-.04ZM35.16,38.37c-.14-.02-.2-.05-.24-.03-.05.02-.07.09-.11.13.02.02.04.04.06.06.07-.04.14-.09.28-.17Z"/>
  <path d="M32.23,33.67c-.54.1-1.09.2-1.63.31-.25.05-.29-.01-.31-.29-.02-.29-.22-.56-.37-.91.03-.05.1-.18.19-.33-.12-.13-.24-.25-.34-.39-.12-.17-.22-.35-.32-.52-.04-.07-.03-.17-.08-.21-.59-.52-.62-1.32-.98-1.94-.16-.29-.39-.53-.45-.88,0-.04-.09-.08-.13-.08-.26,0-.28-.2-.23-.36.14-.42-.07-.7-.32-.97-.07-.09-.21-.16-.23-.25-.09-.45-.28-.83-.63-1.13.05-.42-.33-.58-.53-.83-.21-.27-.25-.54-.29-.83-.01-.11.04-.28-.02-.33-.38-.35-.56-.81-.8-1.24-.14-.24-.34-.45-.41-.7-.11-.44-.53-.7-.58-1.16-.01-.13-.14-.26-.25-.35-.25-.23-.38-.5-.41-.84-.04-.34-.15-.65-.36-.95-.21-.3-.33-.66-.5-1.03-.05.02-.15.07-.25.11-.24-.22-.08-.5-.13-.75-.05-.25-.16-.48-.27-.79.31-.1.58-.18.84-.27.07.15.13.29.2.44.04-.03.08-.06.12-.09-.11-.11-.23-.22-.34-.33.21-.43.43-.86.67-1.35,1.05.6,2.05,1.14,3.02,1.73.97.59,1.91,1.23,2.88,1.82.95.59,1.88,1.19,2.7,1.96,1.09.43,1.77,1.43,2.7,2.02.64-1.14,1.26-2.26,1.89-3.38.05-.09.16-.15.24-.23.05.09.15.2.13.27-.08.23-.19.45-.32.66-.28.45-.54.91-.59,1.45-.29.05-.37.31-.49.51-.19.32-.37.65-.58,1.01.12.16.26.36.4.55.11-.27.23-.5.28-.75.09-.43.18-.85.4-1.23.01-.02-.02-.07-.03-.11.25-.09.38-.28.48-.53.16-.38.31-.8.59-1.08.29-.28.3-.57.36-.95-.25.08-.45.14-.64.2.08-.37.33-.63.63-.95.08.2.14.34.22.53.2-.29.54-.49.46-.91.17,0,.27-.05.31-.26-.23,0-.29.12-.3.28-.15.13-.31.27-.46.4-.04-.02-.08-.03-.12-.05,0-.11-.02-.24.03-.32.51-.79,1.02-1.58,1.55-2.36.25-.38.48-.75.86-1.06.27-.22.38-.66.6-1.07.12.18.19.28.28.41.06-.09.13-.19.23-.32-.14-.09-.26-.16-.44-.27.29-.1.42-.22.44-.5.01-.19.21-.41.37-.55.38-.32.43-.83.76-1.18.1-.1.11-.27.18-.4.1-.19.09-.48.43-.46.06,0,.12-.13.19-.19.15-.15.29-.31.46-.43.3-.21.43-.17.57.15.02.05.03.11.05.17q.19.53.67.68c.26.59.52,1.14.75,1.69.13.31.35.62.02.96.19.08.5-.07.44.29-.01.06-.05.14-.02.17.46.55.44,1.29.73,1.9.25.52.45,1.05.68,1.58.23.52.49,1.02.44,1.63-.01.18.25.39.39.57-.23.37-.22.36.09.56.09.06.18.23.15.32-.15.52.02.98.2,1.45.25.68.45,1.38.48,2.11,0,.05.06.09.09.14.35,0,.38-.27.41-.42,1.02-.53,1.9-1.16,2.81-1.85.08,0,.29.04.4-.05.57-.47,1.38-.59,1.85-1.25.58.04.96-.44,1.41-.64.03-.21.06-.36.09-.51.11.04.21.09.36.15.21-.78.96-.84,1.56-1.06.51-.18.95-.45,1.36-.78.57-.45,1.23-.61,1.93-.63.41-.01.52.21.35.65.36.13.53.47.73.76.07.09.02.3-.04.44-.08.19-.22.36-.31.55-.15.31-.28.62-.4.94-.15.41-.23.84-.55,1.18-.14.15-.15.42-.23.63-.19.51-.35,1.02-.61,1.52-.26.5-.58,1-.66,1.62-.06.44-.38.83-.74,1.13-.07.06-.14.16-.16.24-.06.38-.05.38-.39.62-.02.34-.05.68-.07,1.03-.18.1-.34.2-.54.31-.01.16-.02.34-.04.55.12.04.24.07.38.12-.05.05-.08.11-.12.13-.15.05-.3.07-.44.12-.29.1-.56.25-.66.56-.09.27-.19.51-.49.45-.08.4-.15.73-.22,1.07-.01.05-.05.1-.09.14-.02.03-.06.05-.1.06-.44.11-.17.74-.65.86-.38.09-.52.51-.79.75-.07.06-.08.17-.14.29.18.09.34.17.5.25.05.24-.11.3-.27.37-.25.12-.52.24-.74.41-.35.27-.72.43-1.17.32-.32-.08-.66.04-.99-.21-.18-.14-.55-.01-.82-.04-.97-.11-1.94-.23-2.91-.34-.09-.01-.21,0-.28-.04-.54-.34-1.05-.19-1.62-.05-.47.12-.99.02-1.49,0-.94-.02-1.87-.06-2.81-.08-.55-.02-1.11-.03-1.67-.04-.19,0-.39-.02-.57.03-.32.09-.54-.18-.82-.17-.27,0-.5.29-.82.13-.1-.05-.28-.03-.37.03-.3.21-.61.18-.94.12-.22-.04-.45,0-.67,0-.15,0-.31,0-.46.01-.38.01-.74.03-1.12.14-.46.14-.99.32-1.47-.04-.17-.12-.28.02-.38.15,0,0,.02,0,.02,0ZM42.79,11.76s-.09,0-.14,0c-.13.27-.24.55-.38.82-.19.36-.41.7-.59,1.06-.49,1.02-.96,2.04-1.42,3.06-.3.67-.82,1.23-.97,1.97-.02.1-.12.19-.19.28-.05.07-.16.13-.17.2-.04.55-.5.92-.63,1.43-.01.05-.04.13-.08.15-.42.19-.45.61-.51.96-.07.34-.17.57-.51.64-.01.11-.02.18-.04.26-.1.45-.2.88-.69,1.09-.06.03-.09.16-.13.24-.16.37-.35.42-.64.16-.08-.07-.1-.2-.18-.37-.42.34-.7.57-1.01.82.03-.37.06-.72.08-.95-.52-.5-1.3-.43-1.49-1.17-.72-.07-1.33-.38-1.85-.89-.07-.07-.19-.11-.29-.14-.19-.07-.4-.11-.58-.19-.74-.31-1.28-.95-2.03-1.23-.54-.2-.96-.62-1.54-.76-.28-.07-.54-.27-.78-.44-.12-.09-.19-.23-.38-.14-.05.02-.18-.05-.24-.11-.19-.16-.36-.34-.55-.49-.04-.03-.16.03-.27.05.03.11.04.18.07.25.28.61.48,1.27.86,1.8.41.56.33,1.33.87,1.8-.05.33.3.45.38.72.11.38.28.73.49,1.08.45.77.82,1.59,1.22,2.39.04.08.08.19.06.27-.11.32.19.25.33.35-.07.09-.13.17-.21.27.2.34.4.67.58,1.01.05.1.07.22.06.33-.04.35.06.64.28.91.07.09.1.2.14.31.21.54.39,1.09.62,1.63.15.35.36.67.55,1.01.04,0,.08.01.11,0,1.6-.32,3.2-.68,4.83-.84,1.24-.12,2.48-.19,3.73-.11.97.07,1.96-.01,2.94-.01.42,0,.85.03,1.27.05.59.04,1.19.17,1.77.12,1.1-.1,2.18,0,3.25.2.54.1,1.06.22,1.62.22.44,0,.89.12,1.33.22.33.08.65.2.98.31.12.04.25.06.37.11.36.16.53.09.65-.29.03-.11.03-.23.07-.34.25-.74.36-1.54.94-2.13.08-.09.1-.24.14-.36.09-.27.14-.55.26-.8.25-.52.56-.99.71-1.56.08-.29.31-.58.54-.79.23-.22.35-.43.36-.74,0-.25.01-.51.1-.74.15-.39.38-.75.55-1.13.27-.63.6-1.23.77-1.92.13-.52.34-1.08.95-1.28.08-.03.18-.1.2-.18.09-.31.22-.63.2-.94-.02-.45.17-.77.41-1.1.08-.11.14-.23.21-.35-.26.05-.47.14-.63.28-.78.7-1.54,1.42-2.39,2.03-.6.44-1.2.89-1.83,1.28-.45.28-.97.44-1.44.69-.49.26-.99.53-1.42.87-.28.23-.51.52-.83.73-.33.22-.6.3-.88.02-.38.22-.71.41-1.04.61-.02-.03-.04-.06-.06-.1.11-.12.23-.24.38-.41-.67,0-1.08.6-1.71.49-.13-.33.33-.4.3-.69-.78-1.96-1.95-4.48-2.17-4.67-.05.1-.09.2-.14.31-.02,0-.05-.01-.07-.02-.01-.12-.02-.25-.04-.41-.37.01-.57-.27-.59-.55-.06-.57-.44-.98-.61-1.49-.22-.68-.63-1.3-.9-1.97-.32-.8-.63-1.6-1-2.38-.1-.22-.2-.45-.29-.67Z"/>
  <path d="M91.16,93.07c-.62-.27-.87-.48-.94-.78.52.05.81.29.94.78Z"/>
  <path d="M31.09,34.5c.06-.24.14-.42.45-.47.24-.04.46-.24.69-.36,0,0-.02,0-.01,0,.05.03.09.06.23.14-.21.12-.38.23-.55.31-.26.13-.53.24-.8.36h0Z"/>
  <path d="M118.58,131.96c-.22-.04-.44-.09-.71-.14q.4-.27.75.02s-.02.08-.04.12Z"/>
  <path d="M89.93,92.18c-.34.08-.48-.03-.52-.28,0-.05.08-.15.13-.15.26,0,.31.21.39.43Z"/>
  <path d="M115.63,130.97c-.2-.05-.36-.08-.57-.13q.41-.37.57.13Z"/>
  <path d="M115.92,131.12c.16-.41.4,0,.6-.1-.16.26-.39.09-.6.1Z"/>
  <path d="M118.96,131.91c.28.15.29.29-.02.45,0-.19.02-.32.02-.45Z"/>
  <path d="M31.09,34.5c-.22-.09-.54.22-.7-.18.31-.19.51,0,.7.18,0,0,0,0,0,0Z"/>
  <path d="M92.87,94.17c.08.15.13.25.19.36-.07.02-.11.05-.14.04-.17-.06-.25-.16-.05-.4Z"/>
  <path d="M91.73,93.48c-.16-.17-.14-.29.22-.36-.11.16-.18.25-.24.35,0,0,.02.01.02.01Z"/>
  <path d="M119.82,132.41s.09-.11.12-.11c.05.01.09.07.14.11-.04.03-.08.09-.12.1-.04,0-.09-.05-.14-.09Z"/>
</svg>