<?xml version="1.0" encoding="UTF-8"?>
<svg id="Layer_1" xmlns="http://www.w3.org/2000/svg" version="1.1" viewBox="0 0 864 864">
  <!-- Generator: Adobe Illustrator 29.2.1, SVG Export Plug-In . SVG Version: 2.1.0 Build 116)  -->
  <g id="Layer_4">
    <g>
      <path d="M719,654.8c.7,3.2,4,3.7,6,5.4,1.9,1.6,3.8,3.1,5.7,4.7.4.3.8.7,1.2.8,2.7.5,4,2.3,5,4.6-1.2.5-2.1.4-3.1-.8-.9-1-2.4-1.6-3.7-2.3-1.5,1.3-1.9-.7-3-1.1-.6.3-1.6.6-1.9,1.1-1.1,2.5-3.3,2.1-5.1,1.7-5.8-1-11.5-2.3-17.2-3.4-1.2-.2-2.4,0-3.6-.1-.9,0-1.7-.4-2.5-.7-2.2-.8-4.1-2.5-6.7-1.2-.5.2-1.3,0-1.9-.4-2.8-1.5-5.6-2.3-8.9-1,.3.9.6,1.8.9,2.9.4-.7.6-1,.9-1.5,1.5.8,3.1,1.7,4.7,2.6,2.9,1.7,5.8,3.3,8.6,5.1.5.3.8,1.1,1.2,1.7.5.8.9,1.6,1.4,2.6.8-.5,1.2-.9,1.9-1.3.8,2.5,3.2,1.2,4.7,2.2,1.5,1,3.2,1.7,4.8,2.6,3.5,1.9,6.9,3.9,10.3,5.8v2.2c.8-.4,1.3-.7,2.1-1.1.2.7.5,1.3.7,1.9h-1.8c-.2.3-.3.5-.5.8.4.4.8.8,1.5,1.5.4-1.3.6-1.9.8-2.4.5.6,1.1,1.2,1.8,1.9.4-.3.9-.6,1.4-.9.2.1.4.2.4.3.2,1.9,2,1.9,3.2,2.3,1.3.4,2.5.7,3,2.2.5,1.8,2.4,1.9,3.7,2.1,1.8.3,2.9,1.2,4,2.5.6.8,1.4,1.4,2.2,2.1,1,.9,1.6,1.8.8,3.6-2.1-1.1-4.2-2.1-5.8-2.9-1.7,1.2-3.1,2.2-4.4,3.1,2.6,2.1,5,4.5,7.9,6.1,2.3,1.3,3.9,3.7,7,4,1.7.2,3.4,1.4,5,2.3.5.3.9.9,1.4,1.1,1.7.6-1.3,2.4.9,3.2.8.3,1.2,1.9,1.8,3-1.8,1.2-2-.7-2.9-1.1-.6.2-1.2.4-1.7.6-.3,1.4-.9,2.8-.7,4.1.3,2.7-.8,3.9-3.5,3.7-7.1-.6-13.6-3.4-20.1-6-2.2-.9-4.7-1.4-5.9-3.8-.1-.2-.4-.5-.7-.6-2-.5-4-1-6-1.5-1.9-.5-3.8-.9-4.5-3.3-2.2.8-3.9.3-5.1-1.7-.3-.6-.9-1.2-1.5-1.5-1.2-.5-2.5-.6-3.7-1.1-1.2-.5-2.3-1.2-4.1-2.2,1.7,1.6,2.8,2.7,3.9,3.8.3.3.6.7,1,.7,2.7,0,3.5,2.2,5,3.8,1.6,1.7,4,2.6,6,3.9s2.1,1.2,3,1.9c2.3,1.8,4.6,3.6,6.9,5.5,2.2,1.7,4.4,3.4,6.4,5.3.5.4.3,1.5.6,2.9-1.8-.6-3-1-4.3-1.3-2.3-.6-4.5-1.1-6.8-1.7-.4,0-1,0-1.2-.2-1.5-1.9-3.4-1.1-5.3-1-1.5,0-3.1-.6-4.8-.9-.1.3-.3.7-.5,1.3-.6-.4-1.6-.6-1.7-1.1-.6-2-2.1-1.5-3.3-1.3-1,.1-1.8.5-2-.9,0-.2-.6-.5-.9-.5-2.1.1-3.6-1.8-5.9-1.4-.5,0-1.3-1.3-2.1-2.1-.5,0-1.1.2-1.7.3-1,.2-1.9.1-2.3-.9-.7-1.5-2.1-1.4-3.3-1.6-2.7-.3-5-1.1-7.1-3.2-.4.3-.8.8-1.4,1.3,3.2,1.6,6.2,3.1,9.4,4.7-.6,1.3-1.3,1.6-2.5,1.1-2.6-1.1-5.3-1.9-7.8-3.3-3.3-1.8-7-2.5-10.3-4.2-2.7-1.5-5.8-2.3-8.3-4.2-1.5-1.1-3.5-1.4-5.2-2.2-3-1.3-6-2.6-9-3.8-4.7-2-9.3-4.1-14.2-5.8-3-1.1-5.9-2.5-9.2-2.9-.3,0-.6-.2-.8-.4-6.2-4-13.7-5.3-20.1-8.9-.8-.4-1.8-.3-2.6-.6-4.5-1.7-9-3.4-13.5-5.1,0,0-.2,0-.3-.1-2.3-2.6-5.9-2.2-8.7-3.5-1.3-.6-2.6-1-3.8-1.7-.4-.2-.6-1-.8-1.5-.3-.5-.6-1-.9-1.5-2.8,2.3-5.8.2-7.4-2.9-.9,2-.8,1.8-2.4,1.1-2.5-1-4.2-3.3-7.1-3.5-.2,0-.3-.2-.5-.3-1.9-2-2.3-2.3-4.2-2.9,0,.5-.1.9-.3,1.6-1.8-.5-3.6-.8-5.1-1.7-2.6-1.4-5.6-.9-8.3-1.6-1.3-.3-2.5-.7-3.8-1-.8-.2-1.5-.5-2.3-.6-1-.1-2,0-2.5-1.2-.2-.5-1.3-.7-2-.9-7-1.8-13.6-4.6-20.2-7.4-1.7-.7-3.4-1.3-5.1-1.9-.3,0-.6-.1-.9,0-1.8.2-3.6.3-5.5.5-.5,0-1.1.4-1.6.6.3.6.5,1.2.9,1.7.1.2.5.3.7.6-3.4,1.2-6.7.5-10,.8-3.2.3-6.5.4-9.7.6-3.3.3-6.6.7-10.1,1.1.3,1.1.5,1.7.7,2.4.6,2.7,1.2,5.3-.7,7.8-1,1.2-1.8,2.7-1.2,4.2-2,1.7-3.7,3.3-4.6,5.6-.1.2.1.8,0,.9-2.9,1-2.5,4.3-4.2,6-2.1,2-4.3,4-6.5,6-.4.3-.8.7-.9,1.1-.8,2.4-2.9,3.7-4.7,5-1.1.8-2,1.5-2.4,3-.9,2.8-2.4,5.3-5,7-.7.5-1.2,1.3-2,2.2-.6-.2-1.2-.4-2.6-.9.7,1.4,1.1,2.3,1.6,3.5-.9,0-1.5.1-2,.2-1.5,2-2.8,3.9-4.4,6.1.5.2,1.3.4,2.3.7-.7,1-1.3,2-2,3-.2,0-.3,0-.5-.1,0-.7.1-1.4.2-2.1-2.1.4-3.1,1.1-3,2.3.1,1.6,1.4,1.1,3.1,1.3-1.4.6-2.1.9-2.8,1.3-.5-.5-1-.9-1.6-1.4.1.9.7,1.4,1.6,1.3.6,1.5,0,2.2-1.5,2.5-.8.2-1.5.3-2.7.5,1.2,1.5,3.2,2.4,1.2,4.3-.5-.8-1.1-1.6-1.7-2.5-3.8,4.3-4.2,5-4.7,9-1.6-.6-2.5,0-3,1.5-.7,1.9,1.3,2,2,3.1-.3.7-.6,1.4-1,2.2-.8-.7-1.4-1.2-2.2-1.9-1.4,2.1-1.9,4.3-2.2,6.7,0,0,.4.3.8.6-.7,4.2-4,6.8-5.8,10.5-.8-.2-1.4-.4-2.2-.7.2.5.3.8.5,1,.5.3,1,.8,1.5.8,2.1.2,4.2,0,6.3.3.9,0,1.9.3,2.5.9,1.4,1.1,2.6,1.3,4.2.6,2.3-1,4.4,0,6.5.8.5.2,1.1.7,1.6.6,4.8-.8,9.5.9,14.2.6,2.6-.2,5.3,0,7.9.2.7,0,1.8.5,2.1,1.1,1.6,3.4,4.6,2.7,7.3,2.9,1.2,0,2.5,0,3.6.2,1.9.3,2.6,2.2,1.1,3.2-2.4,1.6-4,3.9-6,5.8-1.2,1.1-2.8,1.8-4.1,2.8-1.4,1-3.8.9-5.8,1-1.4,0-2.8-.4-4.2-.4-15.6,0-31.2,0-46.8,0h-10.1c-36,0-72,0-107.9,0-2.4,0-4.9-.4-7.9-.7,1.1-.7,1.7-1.1,2.4-1.5-.1-.3-.2-.6-.3-.7-1.3-.5-2.6-1.1-2.4-2.7.2-1.5,1.6-1.7,2.8-2,.8-.2,1.6-.3,2.4-.5,1.2-.2,2-.7,2.4-2,.9-2.9,3.5-4,6.1-4.2,6.6-.5,13.1-.5,19.7-.9,3.5-.2,7-1,10.6-1.4,4.2-.5,8.5-.7,12.7-1.1,1.8-.2,3.6-.3,5.3-.7,3.2-.9,6.8-.6,9.9-2.1.2,0,.5-.1.5-.2.8-3.1,4.2-3.4,5.9-5.6,1.8-2.3,3.9-4.4,6-6.5,2.6-2.7,5.5-5.2,8.1-7.9,2.1-2.2,4.1-4.5,6.2-6.8,1.3-1.4,2.6-2.8,3.8-4.4,1-1.5,1.7-3.3,2.7-4.8,1.3-1.9,3.2-3.5,4-5.6,1.2-3.4,5.2-4.7,5.7-8.4,0-.2.5-.6.8-.6,1.1,0,1.3-.6,1.6-1.5.2-.5.6-1,1.1-1.3,1.9-1.6,2-1.9.9-4.3.6-.6,1.3-1.1,1.7-1.7,2.1-3.6,4.1-7.3,6.4-11.3-.1-.4-.5-1.2-.9-2.2.5-.8,1.1-1.6,1.6-2.4-.4-1.2-.7-2.4-1.2-3.5-.2-.5-.5-1.2-1-1.4-2.2-1.2-3-3.2-3.7-5.4-.3-.9-.8-1.9-1.3-2.7-1.9-3.2-2-3.7-2.2-8,0-.5-.9-.9-1.3-1.3s-1.2-.8-1.4-1.3c-.6-1.7-.9-3.5-1.7-5.1-.4-.9-1.5-1.7-2.4-2-3.5-1.1-7-1.9-10.5-2.8-1.2-.3-2.5-.6-3.7-1.1-1-.4-1.8-1.2-2.9-2-.2.2-.7.7-1.2,1.1-2.8-1.1-5.6-2.1-8.3-3.2-1.2-.5-2.2-1.5-3.4-2-1.3-.5-2.8-.4-4-1-2-.9-4.4-1.2-5.8-3.2-.2-.3-.9-.7-1.3-.6-1.6.4-2-.2-2.1-1.7-.1-1.3-1-1.7-1.8-.7-.7.9-1.3.5-1.9.2-4.1-2-8.4-3.7-12-6.2-2.1-1.5-4.3-2.7-6.6-3.9-.8-.4-1.1-1-1.1-2,0-1.3-.9-1.8-2.7-2.4.8,1.1,1.3,1.6,1.7,2.2-3-1-4.5-3.3-5.2-6.3-1,.7-1.8,1.2-2.6,1.8-.6-.4-1.3-.9-2.3-1.6.6-.4,1-.7,1.3-.9-.6-.5-1.2-1.2-1.9-1.8-.4.1-.9.3-1.8.6.2-.8.3-1.3.5-2.1-.9-.4-1.8-.8-2.7-1.2-.4-1-.8-2-1.3-3.4-.5,1-.7,1.5-1,1.9-.3.3-1.3.5-1.3.4-.7-1.7-2.8-1-3.8-2.2-1-1.1-2.5-1.8-3.6-2.8-.6-.6-1.3-1.4-.4-2.4.1-.2-.4-.9-.8-1.7-.6.9-.9,1.4-1.3,2-.8-1.5-1.5-2.8-2.2-4.1-.9.1-1.9.6-2.5.3-1.2-.7-2.3-1.7-3.3-2.7-.7-.7-1.2-1.5-1.8-2.3.5,0,1.1.2,1.8.2-.2-.9-.3-1.5-.5-2.5-.5,1-.9,1.7-1.3,2.3-1-.5-2.3-.8-3.1-1.5-2.4-2.4-4.7-5-7-7.5-1.5-1.6-3-3.3-4.5-5h2.5c-.1-1.4-.9-1.9-1.8-1.6-.3,0-.4,1.1-.6,1.7-.7-.8-1.4-1.7-2.1-2.5-.5-.6-.9-1.3-1.6-1.6-1.3-.5-1.5-1.5-1.2-2.6-2.6-1.1-3.7-3-3.1-5.2-.7-.1-1.4-.2-2.1-.4.2-.8.4-1.6.8-2.9-2.2-2.5-5-5.2-7.4-8.2-1.3-1.7-4-2.7-3.2-5.6-2.2.8-2.2-1.5-3.6-1.9.4-.7.7-1.3.9-1.7-.9-.6-2.2-1.1-2.7-1.9-.4-.8.1-2,.2-3.2-2.2.2-3.5-.9-4-3.1-.5-2.4-2.2-4-4.3-5.2.4-1.1.7-2.1,1.1-3.5-1.9.2-2.8-.8-3.5-2.4-1.2-2.7-2.5-5.4-3.9-8-.5-1.1-1.2-2.1-1.8-3.2-.2-.5-.4-1.1-.7-1.3-2.4-1.2-2.3-3.9-3.6-5.8-1.4-2-1.9-4.1-1.9-6.5s-.5-1.5-.9-2.2c-1.4-2.3-2.5-4.7-3-7.5-.3-2-1.3-3.8-2-5.7-.6-1.6-1.1-3.2-1.7-4.9.9-.4,1.6-.6,2.6-1-.5-.5-.6-.8-.9-.8-1.7-.3-3.2-.7-3.1-3,0-.6-.9-1.2-1-1.8-.3-1-.7-2.4-.3-3.2.6-1.1.4-1.5-.4-2.2-.4-.3-1-.7-1.1-1.2-.7-2.1-1.4-4.2-1.8-6.4-.7-3.7-.8-7.5-1.9-11-1.1-3.6-.4-7.2-.8-10.8-.2-1.6-.2-3.2-.5-4.8-.9-5.8-1.8-11.6-.6-17.6.1-.7.1-1.4,0-2.1-.2-1.6,0-3.1.5-4.7.6-1.9.5-4,.6-6,.3-4.4,0-8.9,1.5-13.2.6-1.8,1.7-3.5.5-5.5-.2-.4.3-1.1.5-1.7,1.6-5.5,2.3-11.1,2.9-16.8.6-5.9,1.5-11.8,2.9-17.5,1.5-6.2,2.1-12.5,3.4-18.6,1.1-5.1,2.1-10.3,3.4-15.4,1.4-5.8,3-11.6,4.7-17.3.9-2.9,2.3-5.6,3.4-8.5.6-1.5,1.2-3,1.9-4.5,1.1-2.5,2-5.1,3.1-7.6,1.4-3.2,3.3-6.2,4.2-9.7.2-.7.7-1.2,1.1-1.8.8-1.2,1.5-2.4,2.3-3.6.9-1.3.8-3.1,2.3-4-.5-1.1,2.1-1.9.4-3.3-.2-.2.1-1.4.5-1.9,1.7-2.3,3.5-4.5,5.3-6.6,1.2-1.4,2.5-2.6,3.6-4,3.9-4.9,8.9-8.5,13.8-12.3,5.2-4,10.9-5.7,17.3-5.8,7.3-.1,14.5-.5,21.8-.4,5.4,0,10.8.4,16.2,1.1,5.2.7,10.5,1.1,15.7,1.8,1.2.2,2.2.4,2.7,1.9-.5.3-1,.7-2,1.4,1.3.1,2.2.2,3.1.3-.2-.9-.3-1.7-.6-2.8,1,0,1.8-.3,2.6-.2,4.7.8,9.5,1.2,14,2.6,2.7.8,5.5.6,8.1,1.9,2.5,1.2,5.5,1.4,8.2,2.2,6,1.6,12,3.3,17.9,5,.5.1.9.5,1.6.9-.5.3-.9.5-1.5.9,1,.2,2.1.6,2.2.4,1.2-1.9,2.5-.4,3.8-.3.2.6.4,1.3.6,2.1,1.1-.1,2-.3,3-.4.5,0,1,0,1.5,0,4.6,1.6,9.2,3.1,13.8,4.8,8.2,3.1,16.4,6.2,24.6,9.3,1.3.5,2.2,1.2,1.7,2.9.6-.5,1.2-1.2,1.5-1.1,1.7.8,3.8.8,5.2,2.4.4.4,1,.9,1.4.8,3.9-.5,6.7,2.2,10,3.3.2,0,.3.7.5,1.1-5.1,3-10.5,4.8-16.1,6-.6.1-1.2.1-1.8,0-2.7-.3-5.2.5-7.8,1.3-10,3.3-19.9,6.6-29.9,9.9-3.2,1-6.4,2.1-9.6,3.1-.9.3-2,.1-3.2.2-.2.2-.7,1-1.4,1.3-.8.4-1.8.6-2.7.6-4,.3-7.5,1.7-11,3.8-3.1,1.9-6.1,3.9-9.2,5.7-.3.2-.8,0-1.2.1-2.3-1.6-2.3-1.6-4.8.3-.3.2-.4.8-.6,1.1.5,0,1.1.2,1.4,0,1.2-1,2.4-1.8,4-1.4-2.9,2.5-6,4.5-9.8,5.1-.8.1-1.6.4-2.2.8-2.3,1.7-4.6,3.4-6.6,5.4-1.4,1.3-2.4,3-3.5,4.6-.2.3-.3.8-.2,1.2.6,2.6,1.4,5.3,2,7.9.6,2.5,3.2,5-.8,7.9,3.1-.2,4.2.9,4.8,2.7.2.7.6,1.3,1.2,1.8.8.7,1.8,1.3,3.2,2.3,0,.1.2.9,0,1.6-.4,1.5.2,2.4,1.6,2.7,2.8.6,4.2,2.4,5.4,4.9,1.6,3.5,4.2,6.2,8,7.6,1.7.6,3.2,1.9,5.6,3.3,1.6-.1,3.7.7,5.7,2.4,2.3,2,4.9,3.7,7.3,5.6,1.4,1.1,2.7,2.2,3.8,3.5,1.2,1.3,2.6,2.4,4.2,2.3,2.8-.3,3.9,1.7,5.2,3.3.7.9,1.4,1.8,1.9,2.8.6,1,1.2,1.5,2.4,1.5,1.5,0,2.5,2,4.3,1.6,1.5,1.7,3.5,2.4,5.5,3.2,1.2.5,2.1,1.2,2.5,2.5.3.8,1,1.5,1.6,2.2,1.5,1.7,3,3.3,4.5,4.9.2.2.3.6.6.7,2.1,1,4.1,2.3,6.2,2.8,1.9.5,2.8,1.4,2.9,3.5,1.9,0,3.5.2,3.6,2.6,0,.5.6,1.3,1,1.4,3.2.4,5,3.4,8,4.1.4,0,.8.7.9,1.1.1,1.9,1.6,2.8,2.8,3.9,1.6,1.5,3.1,3,4.6,4.5.3.3.5.7.8.9,3.7,1.7,6,5,9,7.5.8.6,1.6,1.1,2.4,1.8,4.1,3.4,7.9,7,11.2,11.2,1.5,1.9,3.5,3.3,5.4,4.8.6.4,1.7,0,2.6,0,.5.6,1.1,1.3,1.8,2.1-.4,1.3-.7,2.6-1,3.5,1.3.5,2.5,1,3.8,1.5.2,0,.3.3.5.3,1.1.3,2.7,0,3.1,1.5.4,1.4.5,3,.8,4.8,1.2.9,2.4,2.9,5.1,1.5.2,1.2.5,2.1.4,2.9-.1,1.6.5,2.7,1.9,3.5,6.5,3.5,11.5,8.9,17.8,12.8,1.3.8,2.1,2.3,3.8,2.7.5.1.8,1.3,1.1,2-.7,1-1.3,1.7-2.1,2.7,2.5,1.3,4.8,2.5,7.2,3.8-.2.5-.3,1-.6,1.8,1.2.5,2,2,3.7,1.6.7,2,1.5,2.5,3.5,1.9-.7-1.6-2-2.1-3.6-1.9-.4-1.1-.8-2.1-1.3-3.3,1.7-.6,2.6.4,3.4,1.2,2,2,4.4,3.3,6.7,4.9,1.6,1.1,3.3,1.9,4.3,3.8.3.6,1.2,1,1.8,1.5-1.6,3-1.5,3.4,2.1,4.3-.2-.9-.5-1.7-.5-2.6,0-.3.3-.8.6-.9.3-.1.8,0,1,.2,3,3.1,5.6,5,8.7,6.2,1.8.7,2.5,1.9,2.3,4,0,.6.2,1.2.2,1.8.1,1,.1,1.9.4,2.8.2.5.7.9,1.1,1.5,0-.8,0-1.3.1-2,4,1.7,7.1,5.2,11.7,4.5h0c-.7,1.6.6,2.7,1.3,3.8.7,1,1.4,2,2,3,.5.2,1.3.2,1.9.5,2.4,1.6,2.7,1.6,3.8-1.5.7.7,1.3,1.2,1.9,1.8-.3.2-.4.4-.5.4-1.1,0-1.6.7-1.5,1.5,0,.6.8,1.6,1.3,1.7,2.6.4,3.7,2,4.1,4.3-.6-.5-1.2-.9-1.8-1.3-.2.1-.3.3-.5.4.4.6.9,1.3,1.4,2,.4-.6.7-.9.9-1.2.7-.3,1.5-1.1,2-.9,1.2.5,2.7,1.2,3.1,2.2.7,1.6,1.7,2,3.1,2.4,1.2.3,2.3.9,3.3,1.5,4.6,2.9,9.1,5.9,13.7,8.8.4.3,1,.2,1.5.4,1.8.9,3.5,1.8,4,4.2.7-.2,1.3-.3,2.1-.5.3.3.6.7,1,1.1,1,1.2,2.1,2.2,3.8,2.4,2,.2,3.3,1.5,3.9,3.6.7-.2,1.2-.4,1.5-.5,6.2,4.1,12.3,8.1,18.5,12.2-.2.4-.3,1-.6,1.8.8-.2,1.4-.3,2.1-.5.8.7,1.7,1.4,2.7,2.2-.3.6-.6,1.2-1.2,2.5,1.4-.6,2.1-1,3.1-1.4v2.6c.2,0,.3.2.5.3.3-.5.7-1,1.1-1.5,1.2.4,1.1,2.4,2.8,2.2.3,0,.7,1.4,1.2,2.3.6,0,1.6.2,2.8.5-.4.5-.6.8-.9,1.2.8.7,1.7,1.6,2.7,2.2,6,3.5,11.3,8,17.3,11.5,1.9,1.1,3.5,2.6,5.2,4,.5.4,1.1.6,1.6.9,1.5,1,3.1,1.9,4.6,2.9,1.1.7,2.1,1.6,3.3,2.1,1.5.5,2.8,1.2,3.7,2.5,0,0,.1.2.2.2,4,1.4,5.6,5.5,8.9,7.5,3.7,2.3,6.8,5.4,10.5,7.7,6.9,4.4,13.1,9.6,18.7,15.6,1.7,1.8,3,4,5.8,4.8,1.8.5,1,2.4,1.5,4.2-2.4-1-4.5-.8-6.5-2.6-1.7-1.7-4.5-2.3-6.7-3.3-2.6-1.6-5.2-3.2-7.8-4.7-1.3-.8-2.8-1.3-4.2-2,0,.8.3,1.3.8,1.6,2.1,1.2,4.2,2.5,6.5,3.5,1.5.7,3.2,1,4.8,1.4h0ZM524,507c0,1,.5,1.6,1.5,1.8-.6-.7-1.1-1.2-1.5-1.7-.7-.6-1-1.8-2.3-1.5.3.9,1.1,1.4,2.4,1.4h0ZM399.7,734c1.1-1.3,2.2-2.7,2.3-5.1-1.5,1.8-3.3,2.8-2.2,5.1-.4,0-.8-.3-1.1-.2s-.6.6-.8,1c0,0,.5.6.5.5.4-.3.7-.6,1.1-.9.1-.1.2-.3.3-.5h0ZM406.5,663.2c.7,4.1,1.2,7.8,2,11.5.4,1.8,1,3.3.2,5.3-.6,1.7-.5,3.7-.7,5.5,0,.3-.2.8-.4.8-1.6.3-1.3,1.9-1.9,2.9-.6,1-1.1,2.1-1.7,3.2-2.7,4.5-5.4,9-8.1,13.5-1,1.6-2,3.3-3.2,4.8-1.5,1.9-3.2,3.5-4.9,5.3-1.5,1.7-3.1,3.3-4.6,5-1.3,1.5-3,2.8-3.6,4.5-.6,1.9-1.6,2.9-2.9,4.2-3.4,3.5-6.2,7.4-9.3,11.2-.7.8-1.7,1.9-1.6,2.7.3,2.2-1,2.5-2.7,2.8,1.1,1.4.7,2.3-.3,3.1-.6.5-1.6.9-1.9,1.5-1.5,3.1-3.4,5.9-5.8,8.3-.6.6-.9,1.5-1.3,2.4.6.2.9.3,1.1.3,2.6.3,5.3.4,7.4,2.2.3.3,1,.3,1.5.3,2.7,0,5.5,0,7.8,0,3.7-5.2,7.1-10,10.6-15,.9,1.3,2,1.4,3.3.5-2.3-2.2-2.9-3.6-1.5-5.1,2.4-2.5,3.5-6.1,7.4-7.7-1.8-1.8-.6-3.2.4-4.5,1.1-1.4,2.4-2.8,3.7-4,1.2-1.1,2.2-2.3,2.8-3.8.7-1.8,2.2-3.2,2.7-5.1.1-.6,1-1,1.4-1.5,1-1.1,3.1-1.5,2.9-3.7,0-.3.8-.8,1.3-1.2,1-.7,2.1-1.2,2.8-2.1.5-.5.3-1.7.7-2.3,2.3-2.9,4.8-5.8,7.1-8.7.6-.8,1.5-2.3,1.1-2.9-.8-1.6,0-2.7.6-4,.6-1.3,1.4-2.6,1.6-4,.1-1.1.5-1.8,1-2.7,2-3.1,3.6-6.4,3.4-10.3,0-.6-.1-1.3.1-1.8,1.4-3.3.9-6.6.5-10.2-.9-.3-1.8-1-2.7-1-5.3,0-10.5-1.4-16.4-.5h0ZM711.8,657.8c-2.2-1.8-4.5-3.3-7.8-3.4,1.6,4,5.4,2,7.8,3.4ZM542.2,519.8c-1.1-1.7-2-2.6-3.4-3.1-1,.7-1.7,1.6-1.2,2.8.5,1.4,1.7.6,2.6.5.5,0,.9,0,2-.2h0ZM665.9,718.5c-.4-.8-.7-1.7-.9-2.1-1.7-.4-3-.7-4.6-1.1.8,2.8,3.8,1.8,5.5,3.1ZM316.2,238.7c0-.2,0-.5.1-.7-1.6-.9-4.6-1.2-5.8-.5,2,.4,3.8.8,5.7,1.2h0ZM666.9,719.2c2.1,1,3.6,1.3,4.6.9-1-.8-2.1-1.7-3.3-2.8-.3.5-.8,1.1-1.4,1.9ZM707.5,682.5c1-.3,1.9-.6,2.9-.9-1-.9-2-1.2-3.2-1,0,.6.2,1.2.2,1.9ZM388.3,742.1c-.3,1.6-.5,2.8-.7,4.3,2.4-1.5,2.5-1.7.7-4.3ZM499.5,489.1c.4,1.3,1.3,1.8,2.6,1.6-.7-1.1-1.5-1.6-2.6-1.6ZM701.5,728.1c0,.3-.2.5-.3.8,1.4.5,2.7,1,4.1,1.5,0-.3.2-.6.3-.8-1.4-.5-2.7-1-4.1-1.5h0ZM395.1,740.8c-3.1,2.7-3.2,2.7-1.6,4.1.5-1.4,1.1-2.8,1.6-4.1ZM708.6,713c0,.3-.1.6-.2,1,1.1.3,2.3.5,3.9.9-1.2-2-2.2-2.7-3.7-1.8h0ZM526.7,509c.2,1.7.9,2.2,2.1,1.6-.7-.6-1.4-1.1-2.1-1.6ZM696.5,676.5c0,.2-.2.5-.3.8.9.5,1.7,1.2,2.8,1.2,0-.2.2-.4.2-.6-.9-.4-1.8-.9-2.8-1.3ZM555.2,533.7c-.2-2.3-1.6-2.1-2.6-2.3.7.6,1.4,1.3,2.6,2.3ZM403.5,720.5c.2.2.4.3.6.5.4-.5.9-1,1.3-1.6l-.5-.4c-.5.5-1,1-1.4,1.5ZM713.1,685.8c.2-.2.4-.4.5-.6-.4-.4-.8-.8-1.2-1.2-.1.2-.5.6-.4.7.3.4.7.7,1.1,1.1ZM711.6,700.1l-.3.5c.9.6,1.8,1.1,2.7,1.7,0-.2.2-.3.3-.5-.9-.6-1.8-1.1-2.7-1.7ZM558.4,535.5c-.2.1-.3.2-.4.2s0,.2,0,.3c.4.4.8.8,1.2,1.2.1,0,.5-.1,1.1-.3-.8-.6-1.4-1-2-1.4ZM543.2,520.1c-.4.5-.9.9-.8,1.3,0,.4.5.7.9,1.1.3-.3.8-.7.8-1s-.4-.8-.8-1.3h0ZM342.4,242.6c-.9-1-1.8-1.2-2.7-.5,1,.2,1.7.3,2.7.5ZM414.2,712.8c-.2-.1-.5-.3-.7-.4-.4.6-.8,1.2-1.2,1.9.2.1.5.3.7.4.4-.6.8-1.2,1.2-1.8h0ZM518.4,659.5c-.3-.2-.6-.4-.9-.5-.1,0-.4.5-.4.6.1.3.5.5.7.7.2-.2.3-.5.6-.9h0ZM720.8,719.1l.6-.9c-.7-.4-1.5-.7-2.2-1.1-.1.2-.2.4-.4.7.7.5,1.3.9,2,1.3h0ZM219.6,512.9c0,1.4.6,2.3,1.7,2.6-.6-.9-1-1.5-1.7-2.6ZM391.8,289.6c-.1-.2-.2-.5-.3-.7-.6.3-1.1.5-1.7.8,0,.1.1.3.1.4.6-.2,1.2-.3,1.8-.5h0ZM262.3,236.4c0-.2-.1-.3-.2-.5-.6.2-1.2.4-1.8.6,0,.2.1.3.2.5.6-.2,1.2-.4,1.8-.6h0ZM294.3,235.4c0,.2,0,.5,0,.7.5-.1,1-.2,1.6-.4,0-.1,0-.2,0-.3h-1.6ZM526.1,661.7l-.3.6c.5.2,1,.4,1.6.5l.2-.5c-.5-.2-1-.5-1.5-.7h0ZM515.6,659.1c-1.1-.9-1.7-1.5-2,0h2ZM503.3,654.8c0,.2-.1.3-.2.5.5.2.9.5,1.4.7,0-.2.2-.3.2-.5-.5-.2-1-.4-1.5-.6h0ZM535.5,515.9c-.2.3-.5.7-.4.8.2.3.5.5.8.7.2-.3.4-.5.7-.8-.3-.2-.6-.4-1.1-.7h0ZM394.9,288.6c0-.2-.1-.5-.2-.7-.6.2-1.1.4-1.7.5,0,.1,0,.3.1.4l1.8-.3h0ZM326.8,242.5c0,.2,0,.5,0,.7.6,0,1.2-.1,1.8-.2,0-.1,0-.2,0-.4-.6,0-1.2-.1-1.8-.2ZM258.4,237.3c-.7-.1-1.1-.3-1.3-.2-.2.1-.4.5-.6.7.1.1.2.2.3.3.4-.2.8-.4,1.5-.9h0Z"/>
      <path d="M242.9,212.3c-2.9.6-5.8,1.1-8.7,1.7-1.3.3-1.6,0-1.6-1.5-.1-1.5-1.2-3-2-4.9.1-.3.5-1,1-1.8-.6-.7-1.3-1.3-1.8-2.1-.6-.9-1.1-1.8-1.7-2.8-.2-.4-.2-.9-.4-1.1-3.1-2.8-3.3-7-5.2-10.3-.9-1.5-2.1-2.8-2.4-4.7,0-.2-.5-.4-.7-.4-1.4,0-1.5-1.1-1.2-1.9.7-2.2-.4-3.7-1.7-5.2-.4-.5-1.1-.8-1.2-1.3-.5-2.4-1.5-4.4-3.4-6,.3-2.2-1.8-3.1-2.8-4.4-1.1-1.4-1.4-2.9-1.6-4.4,0-.6.2-1.5-.1-1.8-2-1.8-2.9-4.3-4.3-6.6-.7-1.2-1.8-2.4-2.2-3.7-.6-2.3-2.8-3.7-3.1-6.2,0-.7-.8-1.4-1.3-1.9-1.3-1.2-2-2.6-2.2-4.5-.2-1.8-.8-3.5-1.9-5-1.1-1.6-1.7-3.5-2.6-5.5-.3.1-.8.3-1.3.6-1.3-1.2-.4-2.7-.7-4-.3-1.3-.9-2.6-1.5-4.2,1.6-.5,3.1-1,4.5-1.4.4.8.7,1.6,1.1,2.3.2-.2.4-.3.6-.5-.6-.6-1.2-1.2-1.8-1.8,1.1-2.3,2.3-4.6,3.6-7.2,5.6,3.2,10.9,6.1,16.1,9.2,5.2,3.1,10.2,6.5,15.3,9.7,5,3.1,10,6.3,14.3,10.4,5.8,2.3,9.4,7.6,14.4,10.7,3.4-6.1,6.7-12,10.1-18,.3-.5.8-.8,1.3-1.2.3.5.8,1.1.7,1.4-.4,1.2-1,2.4-1.7,3.5-1.5,2.4-2.9,4.8-3.1,7.7-1.5.3-2,1.6-2.6,2.7-1,1.7-2,3.5-3.1,5.4.6.9,1.4,1.9,2.1,2.9.6-1.4,1.2-2.7,1.5-4,.5-2.3,1-4.5,2.1-6.5,0-.1,0-.4-.1-.6,1.4-.5,2-1.5,2.5-2.8.8-2,1.6-4.2,3.1-5.7,1.5-1.5,1.6-3.1,1.9-5.1-1.3.4-2.4.8-3.4,1.1.4-2,1.8-3.3,3.4-5.1.4,1.1.7,1.8,1.1,2.8,1.1-1.6,2.9-2.6,2.5-4.9.9,0,1.5-.3,1.7-1.4-1.2,0-1.5.6-1.6,1.5-.8.7-1.6,1.4-2.4,2.2-.2,0-.4-.2-.6-.3,0-.6-.1-1.3.1-1.7,2.7-4.2,5.4-8.4,8.2-12.6,1.4-2,2.6-4,4.5-5.6,1.5-1.2,2-3.5,3.2-5.7.6,1,1,1.5,1.5,2.2.3-.5.7-1,1.2-1.7-.8-.5-1.4-.8-2.3-1.4,1.5-.5,2.2-1.2,2.3-2.7,0-1,1.1-2.2,2-2.9,2-1.7,2.3-4.4,4-6.3.5-.6.6-1.4,1-2.1.5-1,.5-2.5,2.3-2.5.3,0,.6-.7,1-1,.8-.8,1.5-1.6,2.4-2.3,1.6-1.1,2.3-.9,3,.8.1.3.2.6.3.9.7,1.9,1.9,3.1,3.5,3.6,1.4,3.1,2.7,6,4,9,.7,1.6,1.8,3.3.1,5.1,1,.4,2.7-.4,2.3,1.6,0,.3-.2.7-.1.9,2.4,2.9,2.3,6.8,3.9,10.1,1.3,2.7,2.4,5.6,3.6,8.4,1.2,2.8,2.6,5.4,2.3,8.7,0,1,1.3,2.1,2,3.1-1.2,2-1.2,1.9.5,3,.5.3.9,1.2.8,1.7-.8,2.8.1,5.2,1,7.7,1.3,3.6,2.4,7.3,2.5,11.2,0,.3.3.5.5.8,1.9,0,2-1.4,2.2-2.2,5.4-2.8,10.1-6.2,14.9-9.8.4,0,1.6.2,2.1-.3,3-2.5,7.3-3.2,9.8-6.7,3.1.2,5.1-2.4,7.5-3.4.2-1.1.3-1.9.5-2.7.6.2,1.1.5,1.9.8,1.1-4.1,5.1-4.5,8.3-5.6,2.7-1,5.1-2.4,7.2-4.1,3-2.4,6.5-3.2,10.2-3.3,2.2,0,2.8,1.1,1.9,3.4,1.9.7,2.8,2.5,3.9,4,.4.5,0,1.6-.2,2.3-.4,1-1.2,1.9-1.6,2.9-.8,1.6-1.5,3.3-2.1,5-.8,2.2-1.2,4.5-3,6.3-.8.8-.8,2.2-1.2,3.3-1,2.7-1.9,5.4-3.2,8.1-1.4,2.7-3.1,5.3-3.5,8.6-.3,2.3-2,4.4-3.9,6-.4.3-.8.8-.8,1.3-.3,2-.3,2-2.1,3.3-.1,1.8-.3,3.6-.4,5.4-1,.5-1.8,1-2.9,1.6,0,.8-.1,1.8-.2,2.9.6.2,1.2.4,2,.6-.2.3-.4.6-.6.7-.8.2-1.6.4-2.4.6-1.5.5-3,1.3-3.5,3-.5,1.4-1,2.7-2.6,2.4-.4,2.1-.8,3.9-1.2,5.7,0,.3-.3.5-.5.8-.1.1-.3.3-.5.3-2.3.6-.9,3.9-3.5,4.6-2,.5-2.7,2.7-4.2,4-.4.3-.4.9-.7,1.5.9.5,1.8.9,2.7,1.3.3,1.3-.6,1.6-1.5,2-1.4.6-2.8,1.3-3.9,2.2-1.9,1.4-3.8,2.3-6.2,1.7-1.7-.4-3.5.2-5.3-1.1-1-.7-2.9,0-4.4-.2-5.2-.6-10.3-1.2-15.5-1.8-.5,0-1.1,0-1.5-.2-2.9-1.8-5.6-1-8.6-.2-2.5.6-5.3.1-7.9,0-5-.1-9.9-.3-14.9-.4-3,0-5.9-.2-8.9-.2-1,0-2.1-.1-3,.2-1.7.5-2.9-.9-4.3-.9-1.4,0-2.6,1.5-4.3.7-.5-.2-1.5-.2-2,.2-1.6,1.1-3.2.9-5,.6-1.1-.2-2.4,0-3.6,0-.8,0-1.6,0-2.4,0-2,0-3.9.1-6,.8-2.4.7-5.2,1.7-7.8-.2-.9-.6-1.5.1-2,.8h0s0,0,0,0ZM299,95.9c-.2,0-.5,0-.7,0-.7,1.5-1.3,2.9-2,4.4-1,1.9-2.2,3.7-3.1,5.6-2.6,5.4-5.1,10.8-7.6,16.3-1.6,3.6-4.3,6.5-5.2,10.5-.1.5-.6,1-1,1.5-.3.4-.9.7-.9,1.1-.2,2.9-2.6,4.9-3.3,7.6,0,.3-.2.7-.4.8-2.2,1-2.4,3.2-2.7,5.1-.4,1.8-.9,3-2.7,3.4,0,.6-.1,1-.2,1.4-.5,2.4-1.1,4.7-3.7,5.8-.3.1-.5.8-.7,1.3-.9,2-1.8,2.2-3.4.8-.4-.4-.5-1.1-1-2-2.2,1.8-3.7,3-5.4,4.4.2-2,.3-3.8.4-5-2.8-2.6-6.9-2.3-7.9-6.2-3.8-.4-7.1-2-9.8-4.7-.4-.4-1-.6-1.6-.8-1-.4-2.1-.6-3.1-1-3.9-1.6-6.8-5.1-10.8-6.6-2.9-1.1-5.1-3.3-8.2-4.1-1.5-.4-2.9-1.4-4.1-2.3-.6-.5-1-1.2-2-.8-.3.1-.9-.3-1.3-.6-1-.8-1.9-1.8-2.9-2.6-.2-.2-.9.2-1.5.3.2.6.2,1,.4,1.3,1.5,3.2,2.5,6.8,4.6,9.6,2.2,3,1.8,7,4.6,9.6-.3,1.8,1.6,2.4,2,3.8.6,2,1.5,3.9,2.6,5.7,2.4,4.1,4.4,8.4,6.5,12.7.2.4.4,1,.3,1.4-.6,1.7,1,1.3,1.8,1.9-.4.5-.7.9-1.1,1.4,1,1.8,2.1,3.6,3.1,5.4.3.5.4,1.2.3,1.8-.2,1.9.3,3.4,1.5,4.8.4.4.6,1.1.8,1.6,1.1,2.9,2.1,5.8,3.3,8.6.8,1.9,1.9,3.6,2.9,5.4.2,0,.4,0,.6,0,8.5-1.7,17-3.6,25.7-4.5,6.6-.6,13.2-1,19.8-.6,5.2.4,10.4,0,15.6,0s4.5.1,6.7.3c3.1.2,6.3.9,9.4.6,5.9-.5,11.6,0,17.3,1.1,2.9.5,5.6,1.2,8.6,1.2s4.7.6,7.1,1.2c1.8.4,3.5,1.1,5.2,1.6.6.2,1.3.3,1.9.6,1.9.8,2.8.5,3.4-1.5.2-.6.2-1.2.4-1.8,1.3-3.9,1.9-8.2,5-11.3.4-.4.5-1.3.7-1.9.5-1.4.8-2.9,1.4-4.3,1.3-2.7,3-5.3,3.8-8.3.4-1.6,1.6-3.1,2.9-4.2,1.2-1.1,1.9-2.3,1.9-3.9,0-1.3,0-2.7.5-3.9.8-2.1,2-4,2.9-6,1.5-3.4,3.2-6.6,4.1-10.2.7-2.8,1.8-5.7,5-6.8.4-.1,1-.6,1.1-.9.5-1.7,1.1-3.3,1.1-5,0-2.4.9-4.1,2.2-5.9.4-.6.8-1.2,1.1-1.8-1.4.3-2.5.7-3.4,1.5-4.1,3.7-8.2,7.5-12.7,10.8-3.2,2.3-6.4,4.7-9.7,6.8-2.4,1.5-5.2,2.3-7.7,3.7-2.6,1.4-5.2,2.8-7.5,4.6-1.5,1.2-2.7,2.8-4.4,3.9-1.8,1.2-3.2,1.6-4.7.1-2,1.2-3.8,2.2-5.5,3.2-.1-.2-.2-.3-.3-.5.6-.6,1.2-1.3,2-2.2-3.6,0-5.7,3.2-9.1,2.6-.7-1.8,1.8-2.1,1.6-3.7-4.1-10.4-10.4-23.8-11.6-24.8-.2.5-.5,1.1-.7,1.6h-.4c0-.8-.1-1.4-.2-2.3-2,0-3-1.4-3.2-2.9-.3-3-2.4-5.2-3.2-7.9-1.2-3.6-3.4-6.9-4.8-10.4-1.7-4.2-3.4-8.5-5.3-12.7-.5-1.2-1-2.4-1.6-3.6h0Z"/>
      <path d="M556.2,528c-3.3-1.5-4.6-2.5-5-4.1,2.8.3,4.3,1.6,5,4.1Z"/>
      <path d="M236.8,216.7c.3-1.3.8-2.2,2.4-2.5,1.3-.2,2.4-1.2,3.7-1.9,0,0,0,0,0,0,.2.2.5.3,1.2.8-1.1.6-2,1.2-2.9,1.7-1.4.7-2.8,1.3-4.3,1.9h0Z"/>
      <path d="M701.9,734.8c-1.2-.2-2.4-.5-3.8-.8,1.4-1,2.7-.9,4,0,0,.2-.1.4-.2.6h0Z"/>
      <path d="M549.6,523.3c-1.8.5-2.6-.2-2.7-1.5,0-.2.5-.8.7-.8,1.4,0,1.7,1.1,2.1,2.3h0Z"/>
      <path d="M686.2,729.5c-1.1-.2-1.9-.4-3-.7,1.4-1.3,2.4-1.1,3,.7Z"/>
      <path d="M687.8,730.3c.8-2.2,2.1,0,3.2-.5-.9,1.4-2.1.5-3.2.5Z"/>
      <path d="M703.9,734.5c1.5.8,1.5,1.5-.1,2.4,0-1,0-1.7.1-2.4Z"/>
      <path d="M236.8,216.7c-1.2-.5-2.9,1.1-3.7-.9,1.6-1,2.7,0,3.7,1h0Z"/>
      <path d="M565.2,533.9c.4.8.7,1.3,1,1.9-.4.1-.6.3-.7.2-.9-.3-1.3-.8-.3-2.2h0Z"/>
      <path d="M559.2,530.2c-.8-.9-.8-1.5,1.2-1.9-.6.9-.9,1.3-1.3,1.8h0q0,0,0,0Z"/>
      <path d="M708.5,737.2c.3-.2.5-.6.7-.6.3,0,.5.4.8.6-.2.2-.4.5-.6.5-.2,0-.5-.3-.8-.5Z"/>
    </g>
  </g>
</svg>