<?xml version="1.0" encoding="UTF-8"?>
<svg xmlns="http://www.w3.org/2000/svg" version="1.1" viewBox="0 0 864 864">
  <!-- Generator: Adobe Illustrator 28.7.1, SVG Export Plug-In . SVG Version: 1.2.0 Build 142)  -->
  <g>
    <g id="Layer_4">
      <g>
        <path d="M719.04,641.69c.73,3.23,3.95,3.66,6.04,5.37,1.91,1.57,3.82,3.14,5.74,4.7.39.32.8.74,1.25.83,2.65.5,4.01,2.32,4.99,4.6-1.25.53-2.13.37-3.14-.79-.92-1.05-2.42-1.59-3.66-2.35-1.55,1.34-1.89-.69-3.01-1.11-.59.34-1.62.57-1.88,1.14-1.13,2.5-3.3,2.06-5.12,1.73-5.77-1.01-11.48-2.32-17.24-3.43-1.17-.23-2.42,0-3.61-.14-.87-.1-1.72-.41-2.55-.71-2.17-.81-4.14-2.5-6.74-1.15-.45.24-1.34-.1-1.91-.41-2.75-1.48-5.56-2.33-8.94-.97.29.88.57,1.76.94,2.91.41-.65.62-.97.94-1.48,1.55.85,3.13,1.69,4.67,2.59,2.88,1.67,5.77,3.33,8.6,5.08.53.33.83,1.07,1.18,1.65.48.8.9,1.64,1.42,2.58.77-.53,1.25-.86,1.9-1.3.75,2.54,3.21,1.21,4.73,2.22,1.51,1.01,3.21,1.74,4.8,2.63,3.45,1.93,6.89,3.89,10.26,5.79v2.21c.76-.42,1.32-.72,2.09-1.13.25.69.48,1.31.7,1.92-.6,0-1.2,0-1.8,0-.16.27-.32.55-.48.82.4.42.8.84,1.46,1.53.42-1.34.58-1.88.75-2.42.55.59,1.09,1.18,1.75,1.89.43-.28.9-.59,1.36-.9.15.11.41.2.43.32.25,1.92,1.96,1.88,3.22,2.29,1.28.42,2.52.67,2.97,2.2.54,1.82,2.38,1.87,3.73,2.11,1.77.32,2.92,1.16,3.96,2.49.61.79,1.43,1.41,2.18,2.09.97.88,1.6,1.84.84,3.63-2.14-1.07-4.21-2.1-5.81-2.89-1.74,1.22-3.12,2.19-4.44,3.12,2.61,2.06,5.02,4.45,7.86,6.06,2.3,1.3,3.93,3.68,6.95,4,1.74.19,3.38,1.43,5.03,2.27.52.27.87.93,1.4,1.12,1.74.63-1.3,2.42.89,3.16.82.28,1.19,1.92,1.78,2.96-1.85,1.17-1.99-.72-2.93-1.1-.59.21-1.22.44-1.73.62-.28,1.43-.86,2.78-.72,4.06.3,2.73-.75,3.9-3.48,3.66-7.13-.63-13.61-3.41-20.12-6.04-2.19-.89-4.68-1.4-5.9-3.83-.13-.25-.43-.5-.7-.57-2.01-.54-4.04-1.01-6.05-1.53-1.89-.49-3.83-.92-4.45-3.33-2.22.85-3.91.34-5.1-1.68-.35-.59-.9-1.21-1.51-1.46-1.18-.5-2.51-.64-3.7-1.13-1.2-.49-2.29-1.23-4.09-2.22,1.65,1.62,2.78,2.74,3.92,3.83.29.28.63.74.95.74,2.7-.03,3.5,2.19,5.02,3.76,1.61,1.66,3.97,2.6,5.99,3.86,1.01.63,2.07,1.21,3.01,1.94,2.33,1.78,4.62,3.63,6.92,5.46,2.17,1.74,4.39,3.42,6.44,5.29.47.43.35,1.51.62,2.86-1.83-.57-3.05-1.01-4.3-1.33-2.26-.6-4.53-1.14-6.8-1.69-.39-.09-1,.05-1.18-.17-1.5-1.87-3.39-1.1-5.28-1.05-1.55.04-3.12-.57-4.78-.92-.11.29-.29.74-.53,1.35-.61-.36-1.58-.6-1.72-1.08-.57-1.98-2.06-1.48-3.3-1.31-.98.14-1.79.51-1.96-.94-.02-.19-.6-.47-.9-.45-2.07.11-3.64-1.82-5.88-1.36-.51.1-1.32-1.29-2.11-2.1-.49.1-1.08.22-1.67.34-.98.21-1.86.14-2.34-.9-.68-1.47-2.06-1.42-3.34-1.57-2.65-.3-5.05-1.11-7.09-3.16-.37.35-.85.8-1.4,1.32,3.24,1.62,6.25,3.12,9.38,4.68-.63,1.27-1.35,1.63-2.51,1.14-2.6-1.1-5.34-1.93-7.8-3.27-3.29-1.8-7.01-2.47-10.3-4.22-2.74-1.46-5.75-2.31-8.31-4.2-1.47-1.08-3.47-1.42-5.22-2.15-3.01-1.26-6-2.57-9-3.83-4.7-1.98-9.35-4.11-14.15-5.84-3-1.08-5.92-2.52-9.15-2.91-.29-.03-.57-.23-.83-.39-6.23-4-13.66-5.27-20.06-8.9-.75-.43-1.79-.31-2.63-.62-4.49-1.66-8.97-3.39-13.45-5.09-.1-.04-.22-.05-.28-.12-2.34-2.58-5.86-2.24-8.73-3.53-1.27-.57-2.6-1.01-3.81-1.68-.43-.24-.56-.99-.84-1.5-.27-.5-.57-.98-.87-1.5-2.8,2.3-5.82.15-7.44-2.91-.92,2.03-.81,1.77-2.43,1.11-2.45-1-4.24-3.3-7.07-3.48-.17-.01-.34-.21-.48-.35-1.9-2.05-2.28-2.32-4.18-2.86-.07.46-.14.91-.26,1.63-1.77-.55-3.59-.85-5.14-1.66-2.64-1.38-5.56-.92-8.28-1.64-1.27-.33-2.54-.65-3.81-.99-.76-.2-1.51-.52-2.28-.63-1-.14-1.96-.03-2.55-1.25-.25-.52-1.31-.72-2.04-.91-6.99-1.79-13.61-4.56-20.2-7.43-1.67-.73-3.41-1.31-5.13-1.94-.28-.1-.6-.12-.9-.09-1.82.16-3.64.3-5.46.54-.55.07-1.07.42-1.6.64.27.58.5,1.19.85,1.73.14.21.54.26.71.64-3.37,1.19-6.72.49-9.98.78-3.23.28-6.48.36-9.71.64-3.29.28-6.58.71-10.15,1.1.3,1.09.5,1.74.66,2.4.65,2.69,1.23,5.31-.72,7.83-.97,1.25-1.81,2.72-1.16,4.15-2.01,1.7-3.68,3.33-4.58,5.62-.1.25.14.84.07.86-2.85,1-2.45,4.28-4.25,5.99-2.13,2.02-4.31,3.99-6.45,6-.36.34-.79.7-.94,1.14-.84,2.38-2.85,3.69-4.72,5.03-1.13.81-1.97,1.54-2.43,2.95-.92,2.81-2.41,5.29-5.05,6.95-.74.47-1.24,1.33-2,2.18-.57-.19-1.25-.43-2.57-.87.67,1.43,1.1,2.33,1.64,3.48-.89.07-1.54.12-1.95.15-1.45,2.02-2.81,3.9-4.37,6.07.5.16,1.28.42,2.29.74-.69,1.02-1.34,2-2,2.98-.16-.05-.31-.1-.47-.14.06-.69.12-1.38.18-2.09-2.1.38-3.09,1.13-3.01,2.33.1,1.6,1.37,1.08,3.11,1.31-1.35.61-2.08.94-2.82,1.28-.53-.45-1.05-.91-1.57-1.36q.15,1.39,1.65,1.28c.56,1.45-.01,2.25-1.46,2.53-.75.15-1.5.28-2.66.5,1.17,1.46,3.16,2.4,1.18,4.32-.55-.83-1.08-1.63-1.68-2.53-3.84,4.31-4.21,5.03-4.68,9.03-1.56-.62-2.52.02-3.05,1.53-.66,1.87,1.34,1.98,2.05,3.13-.3.65-.63,1.36-1,2.17-.79-.68-1.43-1.24-2.2-1.91-1.36,2.06-1.85,4.29-2.19,6.73.03.03.43.33.79.61-.66,4.21-4.05,6.82-5.84,10.47-.75-.23-1.37-.42-2.21-.68.24.49.29.83.49.97.47.34,1,.81,1.53.85,2.1.15,4.21.08,6.3.26.88.07,1.87.34,2.55.87,1.37,1.07,2.65,1.27,4.24.57,2.28-1,4.39.04,6.5.8.55.2,1.13.7,1.63.62,4.79-.77,9.46.91,14.24.57,2.61-.19,5.27,0,7.89.18.74.05,1.82.49,2.08,1.06,1.57,3.38,4.59,2.74,7.34,2.89,1.22.07,2.45.05,3.65.22,1.87.27,2.6,2.17,1.06,3.21-2.38,1.61-3.98,3.89-6.03,5.75-1.19,1.09-2.75,1.79-4.09,2.8-1.39,1.04-3.79.87-5.76.97-1.39.07-2.81-.43-4.21-.43-15.59-.03-31.18-.02-46.76-.02-3.37,0-6.73,0-10.1,0-35.98-.01-71.96-.02-107.94-.07-2.43,0-4.87-.43-7.88-.71,1.07-.69,1.74-1.12,2.38-1.53-.15-.35-.19-.63-.32-.68-1.27-.52-2.63-1.08-2.41-2.73.2-1.48,1.64-1.67,2.82-2,.79-.22,1.6-.35,2.41-.49,1.2-.2,1.98-.73,2.39-2.02.92-2.9,3.46-4.01,6.08-4.2,6.56-.48,13.15-.49,19.71-.91,3.53-.23,7.03-.99,10.56-1.37,4.22-.45,8.45-.74,12.67-1.14,1.77-.17,3.58-.26,5.27-.74,3.25-.93,6.76-.58,9.86-2.14.18-.09.51-.13.54-.25.8-3.09,4.2-3.4,5.92-5.56,1.84-2.31,3.94-4.43,6.02-6.53,2.65-2.67,5.46-5.19,8.1-7.88,2.14-2.18,4.15-4.5,6.19-6.78,1.28-1.43,2.65-2.82,3.75-4.39,1.05-1.51,1.69-3.29,2.7-4.83,1.26-1.92,3.25-3.54,3.97-5.62,1.18-3.41,5.24-4.66,5.73-8.4.03-.23.55-.59.82-.57,1.11.08,1.33-.59,1.6-1.45.16-.51.65-.97,1.08-1.34,1.89-1.57,1.97-1.89.88-4.32.57-.57,1.29-1.06,1.68-1.73,2.1-3.62,4.11-7.28,6.36-11.3-.14-.37-.47-1.21-.85-2.18.53-.79,1.1-1.62,1.61-2.36-.4-1.2-.72-2.36-1.17-3.48-.21-.53-.55-1.18-1.01-1.43-2.19-1.17-2.97-3.24-3.74-5.37-.34-.94-.8-1.86-1.32-2.72-1.94-3.21-2.04-3.67-2.19-8.03-.02-.45-.85-.87-1.32-1.3-.47-.43-1.18-.76-1.38-1.28-.63-1.68-.88-3.51-1.66-5.11-.42-.87-1.49-1.7-2.44-1.99-3.48-1.07-7.03-1.89-10.55-2.83-1.25-.33-2.54-.59-3.71-1.12-.98-.44-1.81-1.22-2.91-1.99-.22.2-.72.66-1.23,1.13-2.81-1.09-5.57-2.08-8.26-3.23-1.19-.51-2.18-1.52-3.38-1.99-1.28-.5-2.82-.38-4.05-.96-1.98-.93-4.39-1.16-5.77-3.24-.23-.35-.94-.71-1.3-.61-1.57.44-2.02-.25-2.15-1.66-.12-1.28-1.05-1.66-1.82-.72-.71.86-1.33.48-1.86.22-4.06-1.99-8.37-3.67-12.02-6.25-2.12-1.5-4.32-2.69-6.56-3.91-.82-.44-1.11-.99-1.08-1.96.04-1.28-.94-1.82-2.67-2.44.84,1.08,1.27,1.62,1.69,2.16-3-.97-4.46-3.26-5.21-6.33-1.05.73-1.77,1.23-2.62,1.81-.62-.42-1.26-.86-2.33-1.59.63-.44,1.01-.7,1.31-.91-.56-.54-1.21-1.16-1.93-1.84-.39.14-.93.32-1.77.62.2-.81.34-1.34.52-2.07-.88-.38-1.77-.77-2.7-1.17-.38-.96-.77-1.97-1.34-3.43-.5.95-.66,1.55-1.04,1.91-.32.29-1.28.47-1.31.41-.74-1.66-2.76-1.03-3.83-2.21-1.01-1.12-2.48-1.8-3.59-2.84-.6-.56-1.32-1.37-.4-2.4.14-.15-.4-.91-.77-1.71-.6.92-.91,1.39-1.32,2.02-.79-1.45-1.51-2.78-2.23-4.11-.9.12-1.92.59-2.5.27-1.22-.67-2.26-1.71-3.28-2.69-.7-.68-1.23-1.53-1.83-2.29.55.08,1.1.15,1.77.23-.16-.9-.28-1.55-.45-2.5-.55,1.01-.91,1.67-1.27,2.32-1.05-.49-2.32-.75-3.11-1.51-2.44-2.39-4.7-4.95-7-7.47-1.51-1.64-2.97-3.33-4.46-4.99.82,0,1.64,0,2.52,0-.11-1.41-.87-1.9-1.82-1.64-.34.09-.43,1.11-.64,1.7-.69-.84-1.36-1.7-2.08-2.52-.49-.57-.94-1.32-1.58-1.58-1.33-.55-1.47-1.51-1.22-2.63-2.61-1.1-3.68-2.99-3.05-5.22-.69-.12-1.39-.24-2.08-.36.21-.79.42-1.58.77-2.9-2.25-2.45-5.01-5.16-7.38-8.17-1.32-1.66-4.02-2.66-3.17-5.62-2.18.8-2.25-1.48-3.59-1.91.39-.74.67-1.27.9-1.71-.95-.64-2.22-1.06-2.66-1.92-.4-.77.1-2.01.21-3.18-2.17.2-3.52-.9-3.99-3.08-.53-2.43-2.17-3.99-4.26-5.23.35-1.11.68-2.14,1.1-3.46-1.85.15-2.79-.85-3.47-2.42-1.18-2.72-2.54-5.37-3.86-8.03-.54-1.09-1.18-2.14-1.76-3.22-.24-.45-.36-1.13-.73-1.32-2.4-1.22-2.3-3.93-3.61-5.76-1.43-1.99-1.95-4.12-1.95-6.51,0-.73-.53-1.52-.95-2.2-1.45-2.33-2.53-4.73-2.96-7.5-.31-1.95-1.34-3.78-2.03-5.67-.59-1.6-1.15-3.2-1.74-4.86.93-.36,1.64-.64,2.58-1.01-.47-.45-.65-.76-.88-.81-1.67-.34-3.21-.68-3.15-2.96.01-.59-.87-1.16-1.04-1.82-.27-1.04-.74-2.4-.31-3.16.64-1.12.4-1.55-.42-2.18-.44-.33-.98-.73-1.13-1.21-.67-2.12-1.36-4.24-1.77-6.42-.69-3.67-.81-7.49-1.85-11.05-1.06-3.64-.4-7.25-.79-10.84-.18-1.61-.25-3.23-.5-4.82-.91-5.83-1.82-11.65-.64-17.56.14-.69.13-1.44.04-2.15-.21-1.63-.02-3.11.53-4.73.62-1.85.51-3.96.65-5.96.31-4.43.03-8.92,1.49-13.22.6-1.79,1.66-3.53.51-5.55-.2-.36.34-1.13.5-1.71,1.56-5.49,2.29-11.11,2.91-16.79.64-5.87,1.48-11.77,2.89-17.5,1.51-6.16,2.11-12.45,3.39-18.62,1.07-5.14,2.11-10.3,3.37-15.39,1.43-5.79,2.97-11.56,4.7-17.27.88-2.9,2.29-5.64,3.45-8.45.62-1.49,1.2-3,1.85-4.47,1.11-2.51,2-5.1,3.08-7.61,1.39-3.24,3.32-6.24,4.17-9.72.16-.66.71-1.23,1.1-1.83.76-1.19,1.53-2.39,2.32-3.56.86-1.29.83-3.09,2.33-4.01-.5-1.15,2.13-1.95.36-3.34-.2-.16.14-1.36.52-1.85,1.7-2.26,3.47-4.47,5.28-6.63,1.16-1.38,2.54-2.58,3.65-3.99,3.87-4.95,8.88-8.52,13.84-12.27,5.24-3.96,10.9-5.69,17.29-5.81,7.26-.13,14.52-.51,21.78-.43,5.4.06,10.83.44,16.18,1.15,5.21.69,10.45,1.08,15.66,1.83,1.18.17,2.22.38,2.66,1.89-.48.33-.99.68-1.97,1.36,1.33.13,2.16.2,3.11.29-.18-.9-.34-1.7-.56-2.75,1.02-.09,1.83-.33,2.58-.21,4.71.77,9.51,1.24,14.05,2.6,2.66.8,5.46.64,8.08,1.86,2.53,1.18,5.48,1.45,8.23,2.2,5.99,1.64,11.96,3.32,17.94,5.01.47.13.88.46,1.64.87-.52.32-.85.52-1.55.95,1.01.2,2.08.6,2.2.4,1.2-1.88,2.51-.36,3.8-.26.2.65.4,1.3.65,2.08,1.06-.15,2.02-.31,2.98-.39.49-.05,1.04-.08,1.49.08,4.57,1.63,9.22,3.05,13.77,4.75,8.22,3.08,16.42,6.22,24.64,9.32,1.29.49,2.16,1.2,1.68,2.94.65-.52,1.24-1.22,1.46-1.12,1.74.81,3.83.83,5.25,2.36.36.39.96.9,1.39.84,3.85-.45,6.66,2.18,9.97,3.29.24.08.3.69.47,1.13-5.06,3.02-10.46,4.81-16.08,6.03-.59.13-1.23.1-1.84.03-2.74-.34-5.24.49-7.78,1.34-9.96,3.32-19.94,6.58-29.91,9.86-3.19,1.05-6.38,2.14-9.6,3.08-.93.27-1.99.13-3.19.19-.25.25-.73.99-1.41,1.34-.8.4-1.76.58-2.67.64-4.03.29-7.55,1.71-11.02,3.84-3.08,1.89-6.12,3.85-9.22,5.71-.3.18-.76.09-1.17.12-2.32-1.56-2.33-1.58-4.79.34-.3.24-.39.75-.58,1.14.49-.02,1.14.17,1.44-.08,1.18-.98,2.37-1.76,3.99-1.4-2.87,2.47-5.96,4.48-9.81,5.09-.77.12-1.62.37-2.23.83-2.27,1.71-4.56,3.42-6.62,5.36-1.39,1.31-2.41,3.01-3.55,4.58-.21.29-.29.81-.21,1.16.63,2.64,1.36,5.27,1.99,7.91.59,2.51,3.16,4.95-.79,7.94,3.11-.19,4.22.92,4.84,2.73.23.66.65,1.33,1.16,1.79.81.72,1.77,1.27,3.22,2.27,0,.1.25.92.07,1.64-.37,1.54.22,2.43,1.63,2.73,2.77.6,4.24,2.39,5.39,4.89,1.62,3.53,4.18,6.21,8.03,7.58,1.73.62,3.25,1.86,5.6,3.26,1.58-.1,3.71.71,5.67,2.44,2.29,2.02,4.91,3.68,7.31,5.59,1.35,1.07,2.66,2.25,3.81,3.53,1.16,1.29,2.62,2.44,4.18,2.28,2.83-.29,3.88,1.66,5.24,3.32.71.87,1.38,1.79,1.93,2.76.56.98,1.24,1.47,2.42,1.53,1.55.08,2.46,2.04,4.26,1.61,1.46,1.73,3.53,2.38,5.54,3.17,1.16.46,2.06,1.17,2.49,2.5.26.82,1,1.51,1.6,2.19,1.49,1.66,3.03,3.27,4.55,4.91.21.22.33.57.58.69,2.06,1,4.06,2.27,6.23,2.84,1.93.51,2.8,1.41,2.87,3.47,1.9-.08,3.54.21,3.57,2.64,0,.48.61,1.3,1.02,1.36,3.16.44,5.02,3.38,8.04,4.08.37.09.82.73.86,1.15.15,1.89,1.59,2.75,2.79,3.85,1.57,1.45,3.07,2.98,4.59,4.48.28.28.48.71.82.87,3.66,1.71,6.01,4.97,8.95,7.53.75.65,1.65,1.14,2.42,1.78,4.06,3.4,7.92,6.97,11.17,11.2,1.45,1.88,3.5,3.34,5.44,4.78.56.41,1.69.06,2.62.06.55.64,1.14,1.33,1.78,2.08-.36,1.29-.71,2.56-.96,3.47,1.3.51,2.54.99,3.77,1.49.18.07.32.28.51.34,1.13.33,2.69,0,3.13,1.46.43,1.43.48,2.98.75,4.83,1.19.91,2.37,2.92,5.1,1.48.18,1.21.49,2.09.41,2.94-.14,1.64.48,2.7,1.89,3.46,6.46,3.52,11.55,8.92,17.75,12.8,1.31.82,2.15,2.26,3.82,2.72.53.15.77,1.31,1.14,1.99-.73.95-1.34,1.74-2.06,2.67,2.47,1.32,4.77,2.54,7.17,3.82-.17.51-.35,1.04-.58,1.75,1.24.55,1.99,2.05,3.7,1.56.66,2.01,1.47,2.49,3.52,1.94-.72-1.65-1.98-2.07-3.58-1.88-.42-1.07-.85-2.13-1.31-3.29,1.65-.59,2.62.37,3.4,1.18,1.97,2.03,4.44,3.33,6.74,4.87,1.61,1.08,3.34,1.91,4.3,3.77.33.65,1.2,1.02,1.81,1.51-1.63,3-1.47,3.36,2.11,4.34-.21-.94-.47-1.74-.54-2.56-.02-.28.35-.75.64-.86.28-.11.83,0,1.04.22,2.99,3.11,5.57,4.97,8.66,6.17,1.81.7,2.47,1.87,2.33,3.96-.04.58.15,1.17.22,1.76.12.95.13,1.93.38,2.84.15.52.69.93,1.14,1.49.05-.81.08-1.3.13-1.97,4.04,1.66,7.09,5.17,11.7,4.48l-.09-.06c-.74,1.69.56,2.71,1.32,3.89.67,1.05,1.4,2.05,2.02,2.96.55.15,1.33.17,1.87.55,2.37,1.63,2.65,1.57,3.76-1.5.69.66,1.27,1.22,1.87,1.8-.27.23-.4.44-.52.43-1.08-.07-1.6.7-1.48,1.5.1.64.78,1.63,1.3,1.7,2.62.37,3.68,2.01,4.08,4.34-.6-.45-1.2-.89-1.79-1.34-.16.14-.31.29-.47.43.43.64.86,1.29,1.36,2.03.43-.58.65-.88.88-1.19.67-.34,1.54-1.12,1.98-.93,1.17.5,2.69,1.21,3.09,2.23.65,1.64,1.66,2.04,3.13,2.39,1.15.27,2.27.89,3.28,1.54,4.57,2.9,9.09,5.87,13.65,8.79.41.26,1.02.19,1.47.41,1.77.86,3.48,1.8,3.98,4.21.71-.17,1.35-.33,2.09-.5.3.34.64.72.96,1.1,1.02,1.21,2.12,2.24,3.83,2.43,2.03.23,3.28,1.5,3.91,3.59.65-.23,1.17-.4,1.49-.51,6.19,4.08,12.29,8.1,18.5,12.2-.15.44-.33.99-.59,1.79.77-.18,1.41-.33,2.09-.5.85.68,1.72,1.38,2.74,2.2-.31.63-.61,1.24-1.23,2.51,1.38-.64,2.09-.97,3.1-1.44v2.6c.16.09.33.19.49.28.34-.49.68-.97,1.07-1.53,1.15.41,1.07,2.41,2.82,2.2.27-.03.71,1.4,1.17,2.35.61.1,1.59.25,2.82.45-.36.47-.58.75-.93,1.21.85.71,1.66,1.6,2.65,2.18,5.97,3.51,11.26,8.05,17.28,11.49,1.88,1.08,3.49,2.64,5.24,3.95.49.36,1.07.6,1.58.92,1.54.96,3.07,1.93,4.59,2.9,1.11.71,2.13,1.64,3.34,2.08,1.49.54,2.77,1.24,3.71,2.51.06.08.13.18.22.21,3.96,1.36,5.6,5.51,8.92,7.52,3.74,2.26,6.82,5.36,10.48,7.69,6.9,4.39,13.11,9.63,18.68,15.6,1.72,1.84,3.05,4,5.77,4.77,1.81.51.95,2.43,1.48,4.15-2.36-1.03-4.54-.81-6.46-2.63-1.74-1.65-4.45-2.28-6.74-3.35-2.6-1.56-5.16-3.17-7.79-4.67-1.33-.76-2.78-1.31-4.18-1.96.09.79.35,1.35.8,1.61,2.12,1.23,4.23,2.5,6.45,3.51,1.5.68,3.19.96,4.79,1.42ZM524,493.95q-.02,1.54,1.48,1.78c-.64-.71-1.09-1.21-1.55-1.71-.71-.58-1.04-1.8-2.35-1.47q.41,1.33,2.42,1.41ZM399.69,720.88c1.14-1.35,2.24-2.72,2.3-5.07-1.47,1.75-3.32,2.83-2.24,5.13-.37-.07-.83-.31-1.09-.18-.36.18-.61.63-.82,1.02-.04.07.48.56.53.53.39-.26.74-.58,1.07-.91.13-.13.17-.34.26-.51ZM406.45,650.06c.69,4.06,1.17,7.8,2.01,11.45.41,1.8.98,3.35.24,5.29-.64,1.69-.47,3.68-.69,5.53-.03.29-.18.77-.35.81-1.6.35-1.32,1.91-1.91,2.89-.61,1.02-1.08,2.13-1.69,3.15-2.69,4.51-5.4,9.01-8.13,13.5-1,1.64-1.97,3.33-3.17,4.81-1.51,1.86-3.25,3.52-4.89,5.28-1.55,1.67-3.12,3.33-4.63,5.05-1.28,1.45-3.04,2.79-3.58,4.5-.6,1.89-1.65,2.86-2.94,4.18-3.38,3.47-6.25,7.44-9.27,11.25-.66.83-1.68,1.9-1.56,2.72.31,2.15-1.02,2.51-2.74,2.82,1.12,1.37.66,2.3-.33,3.11-.63.51-1.57.86-1.88,1.52-1.48,3.12-3.43,5.87-5.83,8.35-.58.6-.85,1.5-1.32,2.37.59.15.87.26,1.15.29,2.61.31,5.27.4,7.44,2.24.33.28.96.29,1.46.3,2.74.03,5.49.01,7.75.01,3.68-5.21,7.09-10.05,10.57-14.99.93,1.35,2.04,1.44,3.28.46-2.29-2.21-2.88-3.57-1.46-5.07,2.37-2.52,3.55-6.13,7.4-7.66-1.84-1.83-.63-3.22.35-4.5,1.1-1.44,2.36-2.77,3.68-4,1.19-1.11,2.19-2.31,2.79-3.81.73-1.8,2.25-3.16,2.72-5.13.14-.57.96-.97,1.43-1.48,1.04-1.14,3.08-1.45,2.88-3.66-.03-.35.8-.81,1.27-1.16.95-.7,2.07-1.23,2.84-2.09.49-.55.27-1.72.74-2.32,2.31-2.94,4.8-5.75,7.1-8.7.64-.82,1.47-2.26,1.15-2.88-.83-1.64-.05-2.72.56-4,.61-1.29,1.41-2.58,1.59-3.95.14-1.06.46-1.82,1.01-2.71,1.95-3.14,3.58-6.44,3.44-10.3-.02-.61-.11-1.3.11-1.83,1.39-3.26.89-6.59.5-10.18-.85-.31-1.8-.97-2.73-.95-5.27.08-10.51-1.36-16.35-.49ZM711.79,644.66c-2.17-1.78-4.54-3.3-7.81-3.36,1.57,3.95,5.36,2.01,7.81,3.36ZM542.24,506.69c-1.06-1.74-2.03-2.59-3.39-3.07-1.02.68-1.66,1.59-1.18,2.78.55,1.35,1.65.65,2.59.47.45-.09.92-.09,1.97-.18ZM665.91,705.44c-.37-.83-.74-1.65-.92-2.07-1.72-.4-3.05-.71-4.57-1.06.77,2.81,3.78,1.78,5.49,3.13ZM316.2,225.65c.05-.24.09-.47.14-.71-1.59-.95-4.64-1.25-5.81-.49,1.96.41,3.82.81,5.67,1.2ZM666.92,706.14q3.11,1.46,4.63.88c-.99-.84-2.06-1.74-3.27-2.76-.35.48-.79,1.09-1.36,1.88ZM707.45,669.45c.96-.29,1.88-.57,2.92-.88q-1.44-1.31-3.16-.98c.08.62.16,1.24.24,1.86ZM388.28,728.99c-.27,1.62-.47,2.8-.72,4.29,2.43-1.53,2.45-1.65.72-4.29ZM499.5,475.96q.66,1.91,2.56,1.64-1.01-1.62-2.56-1.64ZM701.51,715.02c-.1.26-.2.53-.3.79,1.36.51,2.71,1.03,4.07,1.54.1-.28.21-.56.31-.84-1.36-.5-2.73-.99-4.09-1.49ZM395.06,727.69c-3.15,2.66-3.17,2.72-1.58,4.09.55-1.43,1.06-2.76,1.58-4.09ZM708.57,699.94c-.06.32-.13.63-.19.95,1.14.26,2.28.52,3.9.89-1.16-2.04-2.21-2.65-3.71-1.83ZM526.69,495.86q.31,2.57,2.06,1.6c-.74-.57-1.4-1.09-2.06-1.6ZM696.47,663.36c-.09.25-.18.5-.27.75.89.51,1.71,1.23,2.78,1.18.08-.21.16-.43.24-.64-.92-.43-1.83-.86-2.75-1.29ZM555.25,520.65c-.22-2.32-1.56-2.1-2.63-2.29.72.63,1.44,1.26,2.63,2.29ZM403.45,707.4c.21.16.41.31.62.47.44-.52.87-1.05,1.31-1.58l-.49-.41c-.48.51-.96,1.01-1.44,1.52ZM713.14,672.71c.18-.19.37-.39.55-.58-.41-.4-.83-.8-1.24-1.2-.14.24-.46.62-.4.7.31.4.72.73,1.09,1.08ZM711.64,686.97l-.3.48c.89.56,1.78,1.11,2.67,1.67.1-.16.19-.31.29-.47-.89-.56-1.77-1.12-2.66-1.68ZM558.42,522.43c-.22.13-.33.16-.37.23-.04.07-.02.21.03.27.4.41.78.85,1.23,1.19.11.09.45-.13,1.06-.32-.84-.59-1.42-1-1.95-1.37ZM543.21,506.96c-.38.54-.88.92-.85,1.26.04.38.55.71.86,1.06.28-.34.79-.67.79-1.01,0-.38-.44-.76-.81-1.31ZM342.4,229.46q-1.29-1.56-2.7-.52c.98.19,1.67.32,2.7.52ZM414.25,699.75c-.24-.14-.49-.29-.73-.43-.4.62-.79,1.24-1.19,1.86.23.14.45.28.68.43.41-.62.83-1.23,1.24-1.85ZM518.41,646.38c-.35-.19-.61-.42-.9-.46-.11-.01-.44.5-.38.63.14.28.47.47.72.69.15-.23.29-.45.56-.86ZM720.83,705.99l.63-.93c-.74-.36-1.49-.72-2.23-1.08-.12.22-.24.44-.36.65.66.45,1.31.9,1.97,1.35ZM219.58,499.77q0,2.14,1.74,2.59c-.59-.87-1.04-1.54-1.74-2.59ZM391.8,276.48c-.1-.22-.2-.45-.29-.67-.56.26-1.13.52-1.69.78.05.13.1.26.15.39.61-.17,1.22-.33,1.83-.5ZM262.31,223.3c-.05-.17-.11-.34-.16-.51-.6.19-1.19.39-1.79.58.05.16.11.32.16.48.6-.19,1.19-.37,1.79-.56ZM294.27,222.3c.03.23.06.46.09.69.52-.13,1.04-.25,1.56-.38-.02-.1-.04-.2-.05-.31h-1.6ZM526.08,648.62l-.31.63c.52.18,1.04.36,1.56.55l.2-.49c-.48-.23-.97-.45-1.45-.68ZM515.61,646.04c-1.07-.88-1.69-1.47-1.99,0h1.99ZM503.3,641.75c-.07.15-.14.3-.21.45.47.24.94.48,1.42.72.08-.18.17-.35.25-.53-.48-.21-.97-.43-1.45-.64ZM535.53,502.85c-.18.34-.46.66-.4.76.19.29.51.5.79.74.22-.26.44-.52.67-.78-.32-.21-.63-.43-1.06-.72ZM394.94,275.51c-.06-.24-.11-.48-.17-.71-.58.18-1.15.35-1.73.53.03.15.07.3.1.44l1.8-.26ZM326.8,229.38c0,.25,0,.49-.01.74.59-.06,1.19-.11,1.78-.17,0-.13-.01-.25-.02-.38-.58-.06-1.16-.13-1.75-.19ZM258.44,224.2c-.74-.11-1.07-.26-1.27-.16-.25.12-.39.47-.57.71.11.11.22.23.33.34.38-.23.76-.45,1.51-.9Z"/>
        <path d="M242.87,199.22c-2.89.55-5.79,1.09-8.67,1.66-1.31.26-1.55-.07-1.65-1.52-.1-1.53-1.17-2.99-1.97-4.85.15-.27.54-.96,1-1.77-.62-.71-1.27-1.34-1.79-2.08-.62-.89-1.15-1.84-1.68-2.79-.2-.35-.17-.89-.44-1.13-3.13-2.78-3.3-7.01-5.2-10.34-.87-1.53-2.08-2.83-2.4-4.66-.03-.19-.46-.44-.7-.44-1.41-.03-1.51-1.06-1.22-1.93.74-2.21-.4-3.7-1.68-5.18-.4-.46-1.11-.83-1.21-1.33-.46-2.39-1.49-4.4-3.35-5.98.27-2.21-1.76-3.11-2.81-4.43-1.12-1.42-1.35-2.85-1.55-4.43-.07-.59.21-1.48-.1-1.76-2-1.84-2.95-4.32-4.27-6.58-.73-1.25-1.83-2.4-2.16-3.74-.57-2.32-2.81-3.72-3.06-6.18-.07-.67-.76-1.36-1.32-1.88-1.3-1.23-2.02-2.63-2.21-4.46-.19-1.79-.78-3.46-1.9-5.03-1.13-1.58-1.74-3.53-2.65-5.48-.28.12-.79.35-1.32.59-1.28-1.17-.41-2.68-.68-4-.27-1.32-.87-2.57-1.46-4.21,1.64-.53,3.06-.98,4.48-1.44.36.78.71,1.56,1.07,2.34.22-.16.43-.33.65-.49-.6-.59-1.21-1.18-1.81-1.77,1.14-2.29,2.28-4.57,3.57-7.16,5.58,3.19,10.88,6.08,16.05,9.2,5.17,3.12,10.17,6.52,15.3,9.7,5.04,3.12,10.01,6.32,14.34,10.42,5.81,2.28,9.4,7.59,14.35,10.73,3.38-6.05,6.7-12.02,10.06-17.96.27-.49.84-.81,1.28-1.21.26.48.82,1.09.7,1.44-.44,1.22-1.03,2.41-1.73,3.51-1.5,2.4-2.85,4.84-3.14,7.72-1.53.27-1.97,1.62-2.63,2.73-1.02,1.71-1.99,3.46-3.08,5.35.61.85,1.4,1.93,2.13,2.94.56-1.45,1.22-2.68,1.51-3.99.49-2.26.96-4.51,2.14-6.54.07-.12-.09-.38-.15-.58,1.35-.48,2-1.49,2.55-2.8.84-2.01,1.64-4.25,3.12-5.73,1.52-1.51,1.59-3.05,1.92-5.06-1.34.43-2.38.75-3.41,1.08.43-1.98,1.75-3.35,3.37-5.05.43,1.05.74,1.81,1.14,2.81,1.07-1.57,2.85-2.6,2.46-4.86.89.05,1.46-.28,1.66-1.41-1.24-.01-1.52.62-1.58,1.48-.81.72-1.62,1.44-2.44,2.15-.21-.09-.42-.17-.63-.26.04-.58-.13-1.28.14-1.71,2.69-4.22,5.42-8.42,8.22-12.57,1.35-1.99,2.57-4.01,4.55-5.63,1.46-1.19,2.02-3.49,3.2-5.68.64.96,1,1.5,1.47,2.2.34-.47.71-.99,1.22-1.68-.76-.47-1.36-.84-2.34-1.44,1.53-.53,2.22-1.19,2.33-2.66.08-1.03,1.1-2.17,1.99-2.92,2.01-1.7,2.31-4.42,4.03-6.27.51-.55.61-1.45.98-2.14.53-1,.47-2.53,2.27-2.47.32.01.65-.67,1-1.01.8-.77,1.54-1.63,2.43-2.27,1.58-1.14,2.31-.9,3.04.82.12.28.17.59.28.88q1.03,2.83,3.54,3.63c1.39,3.12,2.74,6.03,4,8.99.7,1.63,1.84,3.3.1,5.09.99.44,2.67-.37,2.32,1.55-.05.3-.24.73-.11.89,2.44,2.94,2.34,6.85,3.91,10.12,1.31,2.74,2.38,5.6,3.62,8.38,1.23,2.77,2.59,5.43,2.34,8.68-.08.97,1.34,2.06,2.05,3.05-1.21,1.96-1.16,1.9.46,2.97.46.3.94,1.22.81,1.69-.8,2.77.13,5.19,1.04,7.73,1.31,3.62,2.4,7.32,2.53,11.22,0,.26.3.5.46.75,1.85.01,1.99-1.41,2.17-2.23,5.43-2.84,10.09-6.16,14.91-9.82.43-.04,1.56.19,2.11-.27,3-2.52,7.31-3.15,9.81-6.66,3.11.23,5.12-2.37,7.52-3.43.18-1.09.32-1.9.46-2.71.56.23,1.12.47,1.92.8,1.14-4.14,5.08-4.48,8.3-5.62,2.72-.96,5.06-2.42,7.25-4.13,3.05-2.38,6.53-3.22,10.23-3.34,2.2-.07,2.77,1.12,1.87,3.44,1.93.7,2.8,2.5,3.86,4.03.35.5.09,1.61-.2,2.32-.41,1.03-1.18,1.92-1.65,2.93-.77,1.64-1.49,3.32-2.13,5.02-.81,2.16-1.2,4.46-2.95,6.26-.75.77-.8,2.21-1.22,3.33-1.01,2.72-1.87,5.44-3.22,8.08-1.36,2.68-3.09,5.33-3.51,8.6-.3,2.33-2.01,4.4-3.94,6.02-.38.32-.76.83-.83,1.3-.33,2.04-.29,2.04-2.09,3.28-.13,1.8-.26,3.6-.39,5.45-.95.54-1.83,1.04-2.88,1.64-.06.84-.12,1.82-.2,2.94.61.19,1.25.38,2,.61-.25.27-.41.59-.65.67-.77.25-1.59.36-2.36.62-1.55.53-2.97,1.31-3.52,2.99-.47,1.44-1.02,2.7-2.6,2.37-.43,2.12-.78,3.9-1.16,5.66-.06.28-.28.54-.47.76-.13.15-.33.26-.52.31-2.34.61-.88,3.95-3.45,4.59-2,.49-2.74,2.72-4.21,4.01-.35.31-.44.9-.73,1.52.93.46,1.81.89,2.68,1.32.27,1.27-.58,1.58-1.45,1.99-1.35.64-2.76,1.26-3.94,2.16-1.88,1.44-3.84,2.27-6.2,1.7-1.72-.41-3.52.2-5.26-1.1-.96-.73-2.9-.07-4.38-.23-5.17-.57-10.32-1.22-15.48-1.83-.5-.06-1.11.05-1.5-.19-2.86-1.81-5.6-1.01-8.62-.25-2.49.62-5.27.1-7.91.04-4.97-.13-9.94-.31-14.91-.45-2.95-.08-5.9-.16-8.85-.2-1.01-.01-2.07-.11-3.01.16-1.69.49-2.89-.95-4.34-.93-1.43.02-2.64,1.52-4.34.69-.52-.25-1.48-.17-1.96.16-1.6,1.11-3.23.94-5,.63-1.15-.2-2.37.01-3.56.04-.81.02-1.62.05-2.44.07-2.01.07-3.94.15-5.97.76-2.44.73-5.24,1.68-7.81-.22-.89-.65-1.5.11-2.03.78,0,0,.09-.04.09-.04ZM299,82.76c-.24.01-.48.02-.73.03-.67,1.46-1.27,2.94-2.01,4.36-.99,1.9-2.19,3.7-3.11,5.63-2.58,5.4-5.11,10.83-7.57,16.28-1.6,3.55-4.33,6.54-5.17,10.48-.11.54-.65.99-1.02,1.46-.29.37-.86.68-.89,1.05-.23,2.94-2.65,4.89-3.34,7.61-.07.29-.22.68-.44.78-2.21.99-2.37,3.23-2.72,5.08-.35,1.8-.89,3.03-2.71,3.38-.08.56-.11.97-.2,1.37-.53,2.37-1.08,4.7-3.67,5.81-.34.15-.47.83-.66,1.28-.86,1.97-1.84,2.25-3.39.83-.42-.39-.55-1.09-.97-1.97-2.22,1.8-3.74,3.04-5.36,4.36.18-1.98.34-3.82.45-5.03-2.77-2.63-6.89-2.31-7.94-6.21-3.8-.39-7.05-2.03-9.82-4.73-.39-.38-1.01-.57-1.55-.76-1.03-.37-2.1-.61-3.1-1.03-3.93-1.64-6.78-5.07-10.8-6.56-2.87-1.06-5.12-3.3-8.19-4.05-1.49-.37-2.86-1.41-4.15-2.34-.65-.47-.99-1.24-2.03-.76-.29.13-.93-.28-1.29-.58-1-.84-1.9-1.81-2.93-2.6-.23-.18-.86.15-1.46.28.17.58.23.97.39,1.32,1.48,3.23,2.54,6.76,4.58,9.58,2.17,2.99,1.77,7.05,4.62,9.58-.26,1.76,1.61,2.37,2.04,3.8.6,2.01,1.51,3.87,2.6,5.73,2.4,4.09,4.37,8.44,6.48,12.69.21.43.45,1.03.31,1.43-.57,1.72,1,1.31,1.78,1.86-.36.46-.7.9-1.14,1.45,1.04,1.79,2.11,3.56,3.09,5.38.27.51.38,1.19.32,1.76-.19,1.85.33,3.41,1.5,4.83.37.45.55,1.08.76,1.64,1.09,2.88,2.07,5.82,3.29,8.65.79,1.85,1.92,3.56,2.9,5.35.19.01.4.07.59.03,8.53-1.67,16.99-3.64,25.68-4.46,6.61-.62,13.17-1.02,19.83-.57,5.18.35,10.41-.06,15.62-.06,2.25,0,4.49.14,6.74.29,3.14.21,6.32.91,9.41.63,5.86-.53,11.58.01,17.29,1.08,2.85.53,5.64,1.17,8.6,1.17,2.36,0,4.74.65,7.06,1.18,1.76.4,3.46,1.08,5.19,1.63.65.21,1.32.34,1.94.61,1.93.84,2.81.48,3.44-1.54.18-.58.17-1.22.36-1.8,1.32-3.92,1.89-8.17,4.99-11.34.44-.45.53-1.27.74-1.93.47-1.42.76-2.92,1.4-4.26,1.31-2.74,2.99-5.28,3.78-8.31.4-1.56,1.64-3.06,2.87-4.19,1.25-1.15,1.88-2.3,1.93-3.95.04-1.31.06-2.71.53-3.91.8-2.07,2.03-3.96,2.92-6,1.46-3.35,3.19-6.56,4.09-10.19.69-2.75,1.78-5.72,5.05-6.83.42-.14.95-.56,1.06-.95.47-1.65,1.15-3.34,1.09-5-.09-2.38.92-4.12,2.2-5.87.43-.58.76-1.23,1.13-1.85-1.41.26-2.52.72-3.36,1.47-4.15,3.7-8.17,7.54-12.69,10.8-3.21,2.31-6.36,4.74-9.72,6.81-2.4,1.47-5.17,2.33-7.66,3.67-2.6,1.39-5.24,2.8-7.53,4.63-1.51,1.2-2.7,2.77-4.4,3.9-1.78,1.18-3.18,1.6-4.66.11-2,1.16-3.77,2.19-5.54,3.22-.11-.17-.23-.34-.34-.51.6-.63,1.2-1.27,2.04-2.16-3.56.04-5.72,3.19-9.08,2.62-.69-1.75,1.76-2.12,1.58-3.67-4.12-10.42-10.35-23.82-11.56-24.84-.24.54-.48,1.09-.72,1.63-.13-.03-.26-.06-.39-.09-.06-.66-.12-1.32-.19-2.18-1.98.07-3.01-1.45-3.16-2.94-.3-3.02-2.36-5.18-3.25-7.92-1.18-3.61-3.35-6.89-4.76-10.45-1.69-4.25-3.37-8.5-5.29-12.66-.55-1.18-1.04-2.39-1.56-3.58Z"/>
        <path d="M556.16,514.95c-3.3-1.45-4.63-2.54-5.02-4.13,2.76.28,4.32,1.57,5.02,4.13Z"/>
        <path d="M236.8,203.63c.33-1.28.75-2.22,2.4-2.48,1.29-.21,2.44-1.25,3.66-1.92,0,0-.09.04-.08.04.25.16.5.32,1.21.77-1.13.65-2,1.22-2.93,1.67-1.4.68-2.84,1.28-4.26,1.92h0Z"/>
        <path d="M701.89,721.71c-1.18-.23-2.36-.46-3.79-.75q2.12-1.46,3.99.1c-.06.21-.13.43-.19.64Z"/>
        <path d="M549.59,510.21c-1.82.45-2.56-.18-2.74-1.47-.03-.24.45-.8.68-.8,1.37.04,1.66,1.1,2.06,2.26Z"/>
        <path d="M686.19,716.44c-1.06-.24-1.92-.44-3.03-.7q2.16-1.98,3.03.7Z"/>
        <path d="M687.75,717.21c.84-2.2,2.11.04,3.17-.53-.86,1.36-2.07.49-3.17.53Z"/>
        <path d="M703.91,721.4c1.5.81,1.54,1.55-.12,2.42.05-1.02.08-1.72.12-2.42Z"/>
        <path d="M236.8,203.62c-1.16-.5-2.85,1.15-3.73-.95,1.65-1,2.69-.04,3.73.96,0,0,0,0,0,0Z"/>
        <path d="M565.24,520.79c.42.8.7,1.34,1.01,1.92-.38.13-.59.28-.73.23-.88-.33-1.31-.84-.28-2.15Z"/>
        <path d="M559.17,517.15c-.84-.92-.75-1.53,1.16-1.91-.6.87-.94,1.35-1.26,1.84,0,0,.1.07.1.07Z"/>
        <path d="M708.51,724.07c.26-.25.5-.61.65-.58.28.07.5.36.75.56-.21.18-.41.5-.63.51-.22,0-.46-.28-.77-.49Z"/>
      </g>
    </g>
  </g>
</svg>